<svg xmlns="http://www.w3.org/2000/svg" xmlns:xlink="http://www.w3.org/1999/xlink" width="1316" height="480" viewBox="0 0 1316 480">
  <defs>
    <clipPath id="clip-path">
      <rect id="Rectangle_3246" data-name="Rectangle 3246" width="1316" height="480" transform="translate(142 1091)" fill="#fff"/>
    </clipPath>
    <clipPath id="clip-path-2">
      <rect id="Rectangle_1003" data-name="Rectangle 1003" width="1313.664" height="326.972" fill="none"/>
    </clipPath>
    <linearGradient id="linear-gradient" y1="0.553" x2="1" y2="0.54" gradientUnits="objectBoundingBox">
      <stop offset="0" stop-color="#63a69b"/>
      <stop offset="0.332" stop-color="#e0ca70"/>
      <stop offset="0.707" stop-color="#2c4c6a"/>
      <stop offset="1" stop-color="#ce6765"/>
    </linearGradient>
    <linearGradient id="linear-gradient-2" x1="0.5" x2="0.5" y2="1" gradientUnits="objectBoundingBox">
      <stop offset="0" stop-color="#fff"/>
      <stop offset="0.284" stop-color="#fff" stop-opacity="0.82"/>
      <stop offset="1" stop-color="#fff" stop-opacity="0"/>
    </linearGradient>
    <linearGradient id="linear-gradient-3" x1="0.5" x2="0.5" y2="1" gradientUnits="objectBoundingBox">
      <stop offset="0" stop-color="#fff"/>
      <stop offset="0.151" stop-color="#fff"/>
      <stop offset="1" stop-color="#fff" stop-opacity="0"/>
    </linearGradient>
  </defs>
  <g id="bg-types" transform="translate(-142 -1091)" clip-path="url(#clip-path)">
    <rect id="Rectangle_3247" data-name="Rectangle 3247" width="1340" height="495" transform="translate(131 1084)" fill="#fff"/>
    <g id="Groupe_10796" data-name="Groupe 10796" transform="translate(7 -157)">
      <g id="Groupe_7357" data-name="Groupe 7357" transform="translate(135.042 1369.898)">
        <g id="Groupe_7356" data-name="Groupe 7356" clip-path="url(#clip-path-2)">
          <path id="Tracé_28631" data-name="Tracé 28631" d="M1265.879,257.227c3.563.322,4.712,3.129,4.587,5.608-.006,2.071-.469,4.283-.463,5.962a6.673,6.673,0,0,0,.063.976h0c.25,1.742,1.814,2.6,3.606,2.628a3.715,3.715,0,0,0,2.979-1.253,8.317,8.317,0,0,0,1.486-4.6c-.007-1.365-.433-2.272-1.144-2.6a1.232,1.232,0,0,0-.536-.1,4.886,4.886,0,0,0-2.72,1.191,3.32,3.32,0,0,0-1.381,1.954c.026.17-.014.2.327.412a2.252,2.252,0,0,0,1.073.242c2.279.172,5.736-3.045,5.742-4.06v0c.006-.062.009-.153.009-.264.007-1.416-.546-5.3-.547-9.222.01-3.083.311-6.237,1.656-8.552,1.187-2.017,2.554-3.189,4.183-3.209,2.481.109,4.072,2.484,5.368,5.687a14.859,14.859,0,0,1,1.342,5.284c-.01,1.934-.774,3.423-1.9,5.945-2.024,4.13-3.7,7.283-6.127,7.607a1.664,1.664,0,0,1-.893-.256h0c-1.077-1.04-.751-2-.892-3.69a44.391,44.391,0,0,1,.72-7.526c.665-2.383.582-4.4,2.7-4.934a1.408,1.408,0,0,1,.62.146h0c1.761,1.09,1.867,3.437,2.329,5.624.18,1.087.338,2.129.517,2.836a3.372,3.372,0,0,0,.242.713l-.371.207v-.329c.365.018.371.119.371.122l-.371.207v.183l-.218-.467a.509.509,0,0,1,.218-.045v.512l-.218-.467h0c.9-.236,6.248-8.368,13.13-13.177,3.559-2.436,6.64-4.321,9.113-4.376,1.832,0,3.063,1.566,3.066,3.786a15.15,15.15,0,0,1-.418,3.217c-2.051,8.939-6.9,16.159-10.817,17.972-3.217,1.382-13.5,4.911-16.492,4.965a1.4,1.4,0,0,1-1.342-.632l0,0a1.1,1.1,0,0,1-.134-.532c.376-1.835,2.786-3.384,5.723-6.149,2.9-2.53,6.186-5.346,7.638-6.969,1.15-1.281,2.11-2.188,2.761-2.807.324-.308.572-.549.705-.7a1.167,1.167,0,0,0,.1-.121l.477.291h-.544a.552.552,0,0,1,.067-.291l.477.291h.122l-.242.675a.831.831,0,0,1-.424-.675h.666l-.242.675a1.585,1.585,0,0,0-.343-.042l.039-.527v.529l-.038,0,.038-.527v.529c-.023-.034-.263.082-.768.442a78.308,78.308,0,0,0-8.962,7.7c-1.627,1.575-3.129,3.114-4.21,4.331-.54.607-.976,1.136-1.26,1.529a4.329,4.329,0,0,0-.3.46l-.062-.033h.037l.025.032-.062-.033h.037v.082c.114,1.058.226,1.375,1.614,1.483a4.863,4.863,0,0,0,.716-.057c1.781-.253,8.38-2.052,11.794-2.065.964.063,1.921-.037,2.553,1.1h0a1.623,1.623,0,0,1,.116.615c-.506,3.071-6.005,7.4-8.641,7.828a24.189,24.189,0,0,1-4.875-.93c-1.9-.823-3.317-.4-4.062-2.349a1.1,1.1,0,0,1,.425-.852l0,0c1.087-.68,3.456-.869,6.187-1.362,1.307-.208,2.586-.415,3.513-.6.461-.092.839-.182,1.056-.251.106-.032.152-.057.153-.055l.38.692h-.746c.086-.672.382-.661.365-.692l.38.692h.108l-.633.577a.867.867,0,0,1-.221-.577h.854l-.633.577,0,0,.5-.459-.128.681a.659.659,0,0,1-.369-.222l.5-.459-.128.681-.089,0c-1.456-.025-8.161,1.592-11.012,1.607-.64-.074-1.182.119-1.856-.706h0c-.727-1.484-1.519-3.9-2.633-3.693a1.512,1.512,0,0,0-.215.016c-1.553,0-4.866,3.869-4.769,4.592h-.159l.124-.075.035.075h-.159l.124-.075,0,0c.195.271.27.328.792.359a10.149,10.149,0,0,0,3.126-.847,5.254,5.254,0,0,1,1.894-.354,5.912,5.912,0,0,1,5.307,3.6,15.356,15.356,0,0,1,.995,5.491,10.8,10.8,0,0,1-.792,4.285c-1.539,3.077-5.124,5.7-6.995,5.919a1.151,1.151,0,0,1-.927-.428l.005.005a1.342,1.342,0,0,1-.274-.843c.335-1.568,1.034-3.346,2.9-3.872l.1,0h.007a1.061,1.061,0,0,1,.958.994c-.634,1.657-1.382,1.3-2.562,1.619a1.836,1.836,0,0,1-1.5-.681h0a3.328,3.328,0,0,1-.685-2.022c-.007-1.312.793-2.769,2.685-4.028,1.65-1.038,2.319-1.694,3.408-1.827a1.389,1.389,0,0,1,1.072,1.072,4.132,4.132,0,0,1-.843,1.9h0a5.3,5.3,0,0,1-4.312,2.537,3.227,3.227,0,0,1-2.894-1.61h0a6.2,6.2,0,0,1-1.167-2.979c.011-1.269.76-2.442,2.354-3.883h0a5.637,5.637,0,0,1,3.682-1.6c.941.006,2.1.342,2.217,1.654a1.548,1.548,0,0,1-.236.807v0c-.972,1.5-3.05,3.533-5.615,3.6a3.817,3.817,0,0,1-1.184-.184h0c-1.626-.533-3.368-1.373-3.439-3.337a4.022,4.022,0,0,1,.766-2.188h0c1.511-2.2,4.53-3.261,6.905-3.3a4.892,4.892,0,0,1,1.789.3l.22.124a10.614,10.614,0,0,1,3.863,7.948,10.3,10.3,0,0,1-.29,2.4h0c-1.648,6.472-10.028,11.234-10.074,11.319l-.47-.794.06-.921,3.593.234.688.381a17.379,17.379,0,0,1,3.013,9.139c.051,5.349-3.636,11.5-16.562,14.288a69.8,69.8,0,0,1-14.791,1.442c-13.644-.132-26.87-2.748-29.773-7.046h0c-1.419-2.553-4.339-2.139-6.68-4.657h0c-1.716-2.422-1.993-14.408-2.1-23.6a82.727,82.727,0,0,1,.295-8.311h0c.335-2.548,2.157-4.606,4.253-6.342.656-.5,1.522-2.038,2.721-2.871,2.523-1.641,5.55-2.439,6.376-3.08,2.461-1.745,7.96-7.986,7.97-7.991l.693.609-.207.9c-3.813-1.291-4.31-8.335-4.5-8.4l.912-.142.627.677c-.176.171-1.2.949-3.722.941a16.388,16.388,0,0,1-2.294-.175,13.241,13.241,0,0,1-6.58-2.607l.609-.694.846.369c-.006.014-4.956,11.373-5.739,13.287h0a16.364,16.364,0,0,0-.5,4.766c0,1.077.042,1.864.041,1.866l-.921.048-.708-.592a16.953,16.953,0,0,1,4.934-3.813c1.971-.957,4.423-.98,5.74-1.609,3.763-1.565,14.233-16.228,14.256-16.224l.736-.391c.007,0,1.847-.007,7.351-2.018a21.367,21.367,0,0,0,6.8-4.367,23.665,23.665,0,0,0,2.06-2.137c.238-.284.419-.523.527-.681a1.763,1.763,0,0,0,.1-.155l.552.291h-.607c.015-.311.069-.283.055-.291l.552.291h-.607a1.065,1.065,0,0,1,.964-.939,6.14,6.14,0,0,1,4.825,6,9.442,9.442,0,0,1-1.17,4.285l-.821-.42.862-.327a10.607,10.607,0,0,1,.741,3.731c.056,3.275-2.119,6.248-6.659,7.22l-.206-.9.732.562c-2.865,3.756-6.28,4.889-9.05,4.872a12.071,12.071,0,0,1-5.848-1.554l.485-.786.7.6c-.077.047-2.871,3.469-7.011,3.523a6.855,6.855,0,0,1-2.515-.479c-4.947-1.966-7.882-6.811-7.94-6.872l.784-.486.49.782a7.351,7.351,0,0,1-3.741.768,15.839,15.839,0,0,1-2.533-.217c-4.761-.806-8.285-4.7-8.355-4.75l.677-.628.838.386c0,.01-1.106,2.4-2.408,4.817-1.524,2.426-2.287,4.8-4.326,5.25a1.272,1.272,0,0,1-.19-.014h0c-1.857-.672-2.529-3.05-3.877-5.582-1.147-2.49-2.1-4.931-2.1-4.941l.859-.336.032.922-.1,0a7.6,7.6,0,0,1-7.788-7.26q-.033-.408-.033-.789c.012-5.621,5.193-6.187,6.728-6.194.349,0,.567.02.591.023l-.089.919-.9-.2c.012-.156,1.022-4.228,6.422-5.731a9.5,9.5,0,0,1,2.561-.328,18.665,18.665,0,0,1,6.939,1.6l-.39.837-.869-.312c1.359-3.4,7.787-7.607,15.007-7.7a15.712,15.712,0,0,1,4.377.606c8.016,2.305,8.9,8.445,8.882,8.6l-.916.108-.522-.761a10.075,10.075,0,0,1,9.743-.492c6.542,3.221,6.471,10.661,6.488,10.741h-.923l-.319-.866c.03-.01,9.41-3.629,9.267-10.709a10.34,10.34,0,0,0-.727-3.685c-2.35-6.2-8.068-6.88-10.706-6.9a11.094,11.094,0,0,0-1.214.062.923.923,0,0,1-.974-1.276,8.179,8.179,0,0,0,.536-2.96,6.353,6.353,0,0,0-1.69-4.449,9.459,9.459,0,0,0-6.872-2.826c-.385,0-.573.025-.573.022a.923.923,0,0,1-1.019-.832c0-.03-1.145-10.942-9.24-13.168a15.615,15.615,0,0,0-4.365-.586c-7.11-.02-14.016,4.134-14.045,4.115a.922.922,0,0,1-1.1-.113c-1.979-1.854-5.4-2.41-8.3-2.4a27.965,27.965,0,0,0-4.97.457l-.188-.9.319-.866c5.736,2.241,6.525,9.748,6.586,9.807l-.915.121-.673-.632a13.231,13.231,0,0,1,8.931-3.837h.172c6.742.137,11.186,5.115,11.262,5.174l-.683.62-.869-.311a25.781,25.781,0,0,0,1.335-7.658c-.028-3.417-.952-6.576-4.34-7.868a10.234,10.234,0,0,0-3.651-.737,6.792,6.792,0,0,0-5.652,2.9.923.923,0,0,1-1.673-.192,11.659,11.659,0,0,0-11.464-7.539,18.134,18.134,0,0,0-2.136.13c-11.237,1.417-11.521,7.745-11.625,9.347,0,.237.015.33.012.331a.923.923,0,0,1-.818,1.021s-2.124.189-4.822,2.678a3.9,3.9,0,0,0-1.258,3,7.291,7.291,0,0,0,.577,2.635.923.923,0,0,1-.987,1.315,8.506,8.506,0,0,0-1.456-.135c-3.812-.016-3.854,3.183-3.919,3.182a.923.923,0,0,1-1.291.78,6.877,6.877,0,0,0-2.567-.465,6.2,6.2,0,0,0-4.483,1.848,5.746,5.746,0,0,0-1.818,4.245,8.046,8.046,0,0,0,.765,3.252.923.923,0,0,1-1.259,1.248,1.732,1.732,0,0,0-.875-.148c-.9.007-2.515.357-4.732,2.636a8.689,8.689,0,0,0-2.005,6.085,16.2,16.2,0,0,0,.359,3.351.923.923,0,0,1-.764,1.136c0,.061-2.922.161-3.839,5.856a6.927,6.927,0,0,0-.079,1.043c-.045,3.957,3.456,7.409,3.436,7.441l-.644.66-.632-.672a8.8,8.8,0,0,1,5.341-2.307,9.379,9.379,0,0,1,5.181,1.805l-.562.732-.923-.018a7.909,7.909,0,0,1,2.436-5.055c2.4-2.255,6.985-2.186,8.2-2.24.174,0,.274,0,.281,0l-.025.922-.9-.209c.009-.139,1.088-4.311,6.416-5.4a12.4,12.4,0,0,1,2.5-.247,18.017,18.017,0,0,1,7.737,1.931l-.439.812-.922.041c-.065,0-.064-5.212-7.006-6.02a8.033,8.033,0,0,0-.907-.051c-4.5-.047-7.711,3.973-7.748,3.952a.924.924,0,0,1-1.293.152,4.035,4.035,0,0,0-2.475-.659,8.05,8.05,0,0,0-3.949,1.171c-3.326,1.79-3.723,6.647-3.756,6.652a.922.922,0,0,1-1.163.825,5.122,5.122,0,0,0-1.283-.125,9.024,9.024,0,0,0-4.451,1.231c-1.832.971-2.3,3.742-2.278,5.57a12.041,12.041,0,0,0,.084,1.453.922.922,0,0,1-.879,1.054c-2.389.114-3.43,1.84-3.5,4.3a7.952,7.952,0,0,0,1.312,4.307,3.965,3.965,0,0,0,3.546,1.8,9.536,9.536,0,0,0,3.539-.833.923.923,0,0,1,1.224,1.266,3.541,3.541,0,0,0-.379,1.518,1.708,1.708,0,0,0,.942,1.6,3.022,3.022,0,0,0,1.565.44,4.215,4.215,0,0,0,2.144-.72.923.923,0,0,1,1.367.247c.013,0,1.023,1.831,4.061,1.83a8.232,8.232,0,0,0,1.479-.141c3.962-.644,4.444-5.17,4.464-5.174a.921.921,0,0,1,.73-.812c.058.013,9.267-2.159,10.693-6.183l.484-.5c6.235-2.7,6.967-9.616,7.014-9.621a.923.923,0,0,1,1.568-.556c.031.06,6.408,6.3,8.238,11.1a96.185,96.185,0,0,1,3.111,11.476.924.924,0,0,1-.959,1.107c-.246-.02-1.867-.187-6.1-2.884-4.258-2.739-5.521-4.473-7.814-5.258a2.333,2.333,0,0,0-.794-.143c-1.423-.121-3.13,1.827-6.054,2.246a6.145,6.145,0,0,1-.684.035,36.045,36.045,0,0,1-11.39-2.962h0c-.789-.558-5.585-4.166-5.593-4.172a.923.923,0,0,1,.476-1.657c.02,0,.406-.035.984-.035,1.244.031,3.335.068,4.789,1.279,1.5,1.4,8.412,8.961,10.042,9.211a2.457,2.457,0,0,0,.591.071c1.4.082,2.934-1.381,5.094-1.483a3.465,3.465,0,0,1,.388.022c2.464.3,2.773,1.881,4.165,3.173h0c1.257,1.365,6.227,2.716,7.991,5.747h0a11.858,11.858,0,0,1,.974,5.5c0,2.036-.178,4.2-.2,6.094-.023,1.992-.311,8.323-.888,14.266-.884,6.063-.76,11.146-3.355,12.419-1.852.212-4.174,3.37-7.023,3.552-1.679-.042-5.5,1.563-10.683,2.42a63.044,63.044,0,0,1-10.212.67c-2.018,0-4.192-.044-6.6-.1h.007l-15.755-.284a.922.922,0,0,1-.906-.923V288.395H994.56a.922.922,0,0,1-.923-.923V271.923a.922.922,0,0,1,.923-.923h1.669a.923.923,0,0,1,.923.923v19.854a.923.923,0,0,1-.923.923H962.671a.923.923,0,0,1-.923-.916s-.156-22.529-.156-37.736c.069-7.825-.107-12.9.278-14.032h0c.866-.853.781-.389,1.272-.6,2.641-.344,12.536-.648,20.7-.652,2.959,0,5.678.041,7.726.139,2.176.217,3.124-.012,4.2.767,1.2,1.793,1.421,11.414,1.547,19.347-.045,4.181-.071,7.265-.717,8.612a3.549,3.549,0,0,1-3.2,1.768,4.289,4.289,0,0,1-4.005-2.418h0a1.653,1.653,0,0,1-.113-.59c.58-2.278,2.71-1.738,4.288-1.935,1.4,0,2.653.135,2.672.137l-.1.917v-.923h43.695l-.167-18.571.923-.009-.055.921c-.022,0-18.088-1.071-21.269-1.069-.207,0-.309.012-.31,0l-.1-.581.627.236c-.044-.016.026.16-.53.344l-.1-.581.627.236c-.276.6-.485,4.929-.462,9.248,0,4.991.18,10.4.344,11.682l-.5.063.273-.49a.6.6,0,0,1,.228.427l-.5.063.273-.49c.447.351,4.855.711,10.5.668,17.374.019,49.753-2.06,50.232-2.243l.116.409-.479-.193c.068.027-.009-.034.363-.216l.116.409-.479-.193c.42-.933.844-6.216.822-11.064.092-4.606-.534-9.51-.889-9.605-.011-.337-5.7-.991-11-.863-5.953,0-11.94.285-12.386.287v-.794l.762.338c-.044-.018.016.335-.762.455v-.794l.762.338c-.25.354-.8,8.241-.763,14.623-.034,4.35.278,8.5.651,9.094h0l-.19.1.108-.249c-.027.062,0,.012.082.153l-.19.1.108-.249c.942.465,5.971.792,12.395.766,18.225.041,50.123-2.014,52.017-2.974.417-.017,1.084-1.741,1.018-4.281a64.605,64.605,0,0,0-2.569-15.493,3.712,3.712,0,0,0-2.314-.936,34.715,34.715,0,0,0-5.893-.4,140.217,140.217,0,0,0-14,.905l-.109-.916h.923v23.719h-.584l.3-.581a.648.648,0,0,1,.285.581h-.584l.3-.581c.433.317,4.99.619,10.22.579,10.766,0,25.706-.7,25.733-.7a.923.923,0,0,1,.966.922v16.427h1.844V190.972h-3.7l-62.511,44.951a.923.923,0,0,1-1.461-.749V193.367l-5.857,3.59a.923.923,0,0,1-1.391-.946l11.361-64.656a.923.923,0,0,1,.909-.763h15.52v.923l-.325-.864a16.139,16.139,0,0,0,6.876-5.385.921.921,0,0,1,1.163-.325s.084.09,1.052.09a16.111,16.111,0,0,0,2.729-.281,4.886,4.886,0,0,0,1.784-.559l.06.073h.421l-.331.243a.381.381,0,0,1-.09-.243h.421l-.331.243a.923.923,0,0,1,1.369-1.225c.006,0,1,1,3.615,1,.165,0,.335,0,.512-.014a7.378,7.378,0,0,0,4.328-1.5.923.923,0,0,1,1.323.042s.985,1.139,4.11,2.145a5.516,5.516,0,0,0,1.67.223,21.128,21.128,0,0,0,6.587-1.54.925.925,0,0,1,1.109.306l-.031.022.034-.054,0,.032-.031.022.034-.054c.347.231,2.078,1.025,7.312,1.234.093,0,.185.006.277.006,5.958.176,9.519-8.774,9.538-8.779a.922.922,0,0,1,1.6-.228l-.533.4.241-.646a.77.77,0,0,1,.292.247l-.533.4.241-.646a19.25,19.25,0,0,0,4.689.292c.3,0,.612,0,.946,0,4.955.044,6.839-5.625,6.861-5.626a.921.921,0,0,1,.83-.64c.009-.015,8.237-.453,8.674-8.044.016-.225.023-.445.023-.658.14-6.862-8.357-8.134-8.365-8.144a.923.923,0,0,1-.636-1.434l.24.164h-.313a.324.324,0,0,1,.073-.164l.24.164h-.313c0-.013.052-.636-2.458-1.724a3.7,3.7,0,0,0-1.475-.33c-1.962-.072-3.237,2.161-3.264,2.15a.923.923,0,0,1-1.672-.77,1.961,1.961,0,0,0,.09-.709c-.035-1.149-.5-3.64-5.918-6.021a12.747,12.747,0,0,0-5-1.2c-3.444,0-4.425,2.062-4.489,2.03a.923.923,0,0,1-1.612-.006c-.019.006-1.035-2.061-4.636-2.068a11.253,11.253,0,0,0-2.871.406c-5.9,1.549-6.178,6.328-6.226,6.331a.923.923,0,0,1-.641.8l-2.4.761a2.644,2.644,0,0,0-1.875,2.27.923.923,0,0,1-1.066.866l.059-.373v.38l-.059-.007.059-.373v.38c-.083-.009-1.632.079-5.757,2.62-3.277,2.044-3.531,3.952-3.557,4.8a3.97,3.97,0,0,0,.037.431.923.923,0,0,1-1.325,1.067,3.361,3.361,0,0,0-1.571-.293,7.379,7.379,0,0,0-4.616,1.9c-2.756,2.185-3.163,5.82-3.156,7.539,0,.573.042.885.038.886a.923.923,0,0,1-1,1.028l.072-.772v.775l-.072,0,.072-.772v.775s-.044-.049-.272.234a8.407,8.407,0,0,0-1.753,2.642,5.319,5.319,0,0,0-.536,2.343,7.245,7.245,0,0,0,1.049,3.522.924.924,0,0,1-.14,1.214l-.353-.393.516.182a.641.641,0,0,1-.162.21l-.353-.393.516.182a1.314,1.314,0,0,0-.037.383,10.007,10.007,0,0,0,.495,2.631,5.092,5.092,0,0,0,3.524,3.279l-.193.9v-.923h12.65a.925.925,0,0,1,.913.789l4.568,31.156a.923.923,0,0,1-.891,1.056l-41.932,1.055a.923.923,0,0,1-.946-.923v-9.019a.922.922,0,0,1,.923-.923h42.87a.922.922,0,0,1,.908.764l7.145,40.761-.364.9-47.437,34.67a.923.923,0,0,1-1.467-.745V189.128h-3.559L1007.49,237.3a.923.923,0,0,1-1.5-.723v-43.02l-20.663,15.415a.923.923,0,0,1-1.467-.856l12.591-98.389a.922.922,0,0,1,.916-.806h15.578v.923l-.379-.841c5.547-2.469,7.352-8.34,7.4-8.335a.924.924,0,0,1,1.209-.588,11.968,11.968,0,0,0,3.94.439c.388,0,.805-.009,1.255-.029a7.744,7.744,0,0,0,1.994-.266l.078-.019.423.435h-.593a.633.633,0,0,1,.17-.435l.423.435h-.125l-.295.4c-.037-.082-.085.082-.173-.4h.468l-.295.4.543-.746.669-.636c.007,0,.725.9,3.805,1.181.131.012.261.017.391.017,2.529.048,4.8-2.327,4.828-2.307a.923.923,0,0,1,1.366.022s1.054,1.261,4.733,2.677a4.692,4.692,0,0,0,1.688.282c3.133.033,7.072-2.439,7.09-2.425a.923.923,0,0,1,1.131.109c.008,0,2.311,2.256,7.38,2.257a17.723,17.723,0,0,0,2.346-.161c6.178-.663,9.111-10.17,9.133-10.177a.923.923,0,0,1,1.695-.188s-.024.052.52.307a9.274,9.274,0,0,0,3.856.61c.437,0,.915-.014,1.436-.046,5.006-.217,7.246-6.021,7.274-6.019a.922.922,0,0,1,1.277-.5l.03-.054a23.884,23.884,0,0,0,4.343-.668,8.35,8.35,0,0,0,6.441-8.48,12.591,12.591,0,0,0-.408-3.1,8.8,8.8,0,0,0-7.763-6.8l-.565-.232-3.162-2.811a3.093,3.093,0,0,0-2.128-.857c-1.731-.042-3.449,1.56-3.474,1.538a.923.923,0,0,1-1.559-.693v-.008c-.043-.279.012-4.873-6.672-7.481a10.973,10.973,0,0,0-3.977-.787,9.515,9.515,0,0,0-6.808,2.972.923.923,0,0,1-1.591-.305s-.018-.228-.686-.686a8.042,8.042,0,0,0-4.555-1.008c-.612,0-1.293.032-2.051.1-6.715.65-7.207,5.817-7.255,5.818a.923.923,0,0,1-1.1.785l-.021.006a10.182,10.182,0,0,0-3.741,1.161c-2.707,1.163-3.73,4.956-3.764,4.953a.923.923,0,0,1-1.306.6,3.5,3.5,0,0,0-1.544-.262,8.18,8.18,0,0,0-4.872,1.876,6.748,6.748,0,0,0-2.7,5.646,8.757,8.757,0,0,0,.224,1.971.923.923,0,0,1-1.609.827,4.389,4.389,0,0,0-3.079-1.533,4.311,4.311,0,0,0-2.711,1.093c-2.871,2.224-3.267,6.913-3.242,8.587,0,.383.015.582.014.582a.923.923,0,0,1-1.088.972l.129-.7v.71l-.129-.013.129-.7v.71c-.011,0-.436-.156-2.02,2.074a4.245,4.245,0,0,0-.58,2.42,18.064,18.064,0,0,0,1.042,5.209.924.924,0,0,1-.4,1.129l-.226-.394.37.285a.707.707,0,0,1-.145.109l-.226-.394.37.285c-.032.022-.507.769-.5,3.349-.09,2.9,3.59,5.993,3.579,6.016l-.579.719v-.923h13.763a.924.924,0,0,1,.917.816l3.865,33.206a.923.923,0,0,1-.917,1.029H992.626a.922.922,0,0,1-.923-.923v-9.488a.922.922,0,0,1,.923-.923h44.451a.922.922,0,0,1,.914.8l9.312,67.76-.344.851-35.139,27.643a.923.923,0,0,1-1.493-.725V188.425h-4.871l-60.047,43.124v81.985a.923.923,0,0,1-.923.923h-3.8a.923.923,0,0,1-.923-.923V289.639a.923.923,0,0,1,.923-.923h192.384a.923.923,0,0,1,.923.923v27.97a.923.923,0,0,1-.923.923H928.433a.922.922,0,0,1-.909-1.08l.009-.054.909.157h-.923V234.645H899.613v10.9h32.51v-46.5H901.207v13.561h27.729V160.09h-29.5v12.144h32.687V125.2H898.2v8.426H928.4V108.335H897.451a.923.923,0,0,1-.923-.923V66.1H841.367V316.739a.923.923,0,0,1-.923.923h-9.563a.923.923,0,0,1-.923-.923V296.8H766.184a.922.922,0,0,1-.923-.923V275.428a.922.922,0,0,1,.923-.923H827.7V245H763.262a.922.922,0,0,1-.923-.923v-23.11a.922.922,0,0,1,.923-.923h64.173V161.595h-64.7a.922.922,0,0,1-.923-.923V140.218a.922.922,0,0,1,.923-.923h64.438V91.732H765.121a.922.922,0,0,1-.923-.923V73.074a.922.922,0,0,1,.923-.923H827.7V38.6H764.059a.922.922,0,0,1-.923-.923V23.6a.922.922,0,0,1,.923-.923h65.9V2.346h-56.1L735.894,23.482V316.633h20.069V65.757L732.308,82.39v80.082a.923.923,0,0,1-.923.923H713.58V317.771a.923.923,0,0,1-.923.923H580.644a.922.922,0,0,1-.923-.923V238.289h.923l-.01.923c-.039,0-38.028-.429-39.3-.429A1.538,1.538,0,0,1,540.019,237c.017-1.59.694-4.229.685-6.189a4.154,4.154,0,0,0-.218-1.515h0c-.157-.241.007-.11-.214-.163-1.2-.162-5.755,3.327-11.732,4.683-3.579.781-11.3,1.1-19.375,1.1-9.3,0-18.877-.43-22.786-1.2-4.667-1.012-6.865-1.954-7.1-4.157a3.245,3.245,0,0,1,1.438-2.409c2.061-1.413,8.535-1.473,16.4-1.557,4.637,0,9.588.119,13.861.28,6.339.245,12.967,1.73,18.027,1.723,4.248-.036,7.029-.939,8.253-4.036a4.353,4.353,0,0,0,.261-1.591c.145-8.617-17.534-30.417-22.329-38.644-4.683-8.326-15.374-9.216-22.945-14.663-7.555-5.667-7.51-14.219-13.011-18.252-2.927-2.238-6.341-2.582-9.6-2.582-1.277,0-2.521.052-3.69.053a12.3,12.3,0,0,1-3.8-.444c-4.492-1.728-6.568-8.755-9.168-9.168a68.184,68.184,0,0,0-13.14-1.707,6.64,6.64,0,0,0-2.6.317c-1.01.018.534,9.974-2.262,18.573-2.15,6.27-8.237,8.973-13.872,8.959a16.288,16.288,0,0,1-7.347-1.669c-7.078-3.832-5.425-17.1-6.153-18.808.138-1.074-5.207-.806-9.716-1.185-2.43-.357-4.212-2.141-5.6-3.7-.692-.784-1.287-1.534-1.758-2.049a4.756,4.756,0,0,0-.572-.554l-.009-.062V135.9l.291.393a.513.513,0,0,1-.291.095V135.9l.291.393-.213-.287h.431c-.052,0,.047.065-.218.288l-.213-.288h.431c-.065.588,1.178,3.468,2.927,5.782,1.712,2.407,4.045,4.361,5.439,4.278a1.792,1.792,0,0,0,.353-.034c3.983-.679,8.874-6.676,9.43-9.606a12.579,12.579,0,0,0,.38-2.781c.006-1.368-.382-2.82-1.181-6.035a18.366,18.366,0,0,1-.487-4.374,26.434,26.434,0,0,1,2.611-11.484c1.678-2.953,6.934-5.953,12.376-6.016a11.166,11.166,0,0,1,5.713,1.47c6.765,4.165,8.043,17.389,8.4,20.586-.085,2.125,5.342,4.827,6.8,5.033a.839.839,0,0,0,.185.018,3.421,3.421,0,0,0,1.773-.737,3.056,3.056,0,0,0,.837-.9h.38l-.3.227a.4.4,0,0,1-.081-.227h.38l-.3.227a14.58,14.58,0,0,1-4.851-6.775c-1.981-5.181-3.02-16.411-6.54-21.052-1.865-2.593-7.209-4.408-12.822-4.377a22.771,22.771,0,0,0-10.8,2.485c-7.351,3.947-10.906,22.091-13.007,25.388-2.313,3.195-6.933,4.285-9.9,7.131-3.021,2.78-6.091,8.655-6.37,9.472l.015.014c-.036,1.269,1.721,7.231,1.721,14.345,0,.375,0,.752-.015,1.134-.195,7.91-5.132,16.023-4.926,16.1h-.837l.364-.733a.839.839,0,0,1,.473.733h-.837l.364-.733h0l-.388.773v-.865a.859.859,0,0,1,.388.092l-.388.773v-.441l-.244-.393c.024.038,0,.006.244-.031v.424l-.244-.393c1.617-.88,9.811-9.371,13.624-9.6l.12,0h0c2.938.208,3.816,3.1,3.771,5.585a15.11,15.11,0,0,1-.34,3.1,28.4,28.4,0,0,0-.955,4.278c.084.84.094,1.144,1.69,1.674,1.4.419,13.891.6,26.31.586,13.732,0,27.809-.161,28.458-.188.106,0,.2,0,.285,0h.162c.157,0,.145-.017.16.009.019.006.1-.036.372-.8.282-.739.663-1.99,1.232-3.964a25.361,25.361,0,0,0,.69-6.733c0-3.824-.361-8.181-.362-12.25a42.446,42.446,0,0,1,.232-4.765c1-7.4,10.046-9.869,15.836-9.905a15.177,15.177,0,0,1,2.471.185l.264.086a10.459,10.459,0,0,0,4.479.727,25.276,25.276,0,0,0,7.43-1.237l.272.882-.38-.84c7.7-3.486,9.177-10.765,9.2-17.538,0-4.2-.6-8.044-.61-10.482.027-1.251.029-2.756,1.688-3.067.224-.014.56-.018,1.055-.018,7.326,0,47.873,1.167,65.654,1.167,4.612.039,7.932-.169,7.94-.209.447,0,1.319-2.49,1.221-4.831a12.248,12.248,0,0,0-.28-2.759,3.544,3.544,0,0,0-.284-.81l-.03-.11c-.915-.492-76.873-1.39-84.215-1.855-3.874-.2-5.92-1.68-5.936-3.83.05-1.893,1.418-3.487,2.822-4.6,1.479-.889,5.065-.8,10.943-.88,13.4,0,36.262.973,48.465.973a68.89,68.89,0,0,0,6.993-.233c10.933-1.418,10.623-8.385,10.713-8.392l.923.007.9.225-.909,3.617-.9-.225-.472-.793c.021-.012,4.315-2.569,4.742-2.793a1,1,0,0,1,.467-.111,8.547,8.547,0,0,1,2.792,1.346c.508.305,1,.608,1.379.829.186.109.345.2.447.253l.09.045-.27.638v-.684c.285.018.256.053.27.046l-.27.638v.239l-.014-.923.012.823-.846-.176c.032.006-.041-.492.834-.647l.012.823-.846-.176,0-.053a24.568,24.568,0,0,0-.528-3.585v0a1.038,1.038,0,0,1-.058-.346c.322-1.758,3.717-5.1,3.773-5.343l.7.605-.2.9s-2.824-.638-4.189-.96c-2.372-.9-3.611-5.157-3.8-5.235l.853-.353.839.384a46.859,46.859,0,0,1-2.481,4.91c-1.351.9-4.97.985-5.536,1.133l-.013-.915h.916c0,.263-.507.915-.9.915l-.011-.915h.136l.672-.421c-.009.05.047-.084.108.421h-.78l.672-.421c.179.313,2.8,3.309,2.8,3.314a.923.923,0,0,1-1.047,1.462c-.006-.014-5.863-2.415-10.359-2.4a6.251,6.251,0,0,0-3.781.959c-3.864,2.985-3.648,4.6-3.736,4.607h-.757l.755-.044v.044h-.757l.755-.044-.921.054-.386-.838,4.03-1.857.836.032,4.54,2.53-.449.806-.92.071c0-.014-.224-2.9-.225-4.356a3.411,3.411,0,0,1,.087-.949c.485-1.125,3.163-3.89,3.6-4.408l.628.611h-.874a.886.886,0,0,1,.246-.612l.628.612h-.039l-.422.743a.824.824,0,0,1-.413-.743h.835l-.422.743c0-.114-4.292-.38-4.295-.4l-.777-.51c-.035-.183-2.189-4.155-2.358-5.27v0l.915-.014v.9a1.045,1.045,0,0,1-.915-.89l.915-.014v.05l.743.466c-.141-.011,0,.117-.743.388v-.854l.743.466c-.279.276-1.386,3.745-3.03,4.742a31.085,31.085,0,0,1-5.622,1.171l-.121-.915.681-.623,3.315,3.617a.923.923,0,0,1-1.04,1.473,30.95,30.95,0,0,0-10.246-2.269,10.644,10.644,0,0,0-3.477.512c-5.159,1.822-5.089,5.16-5.159,5.162l-.922-.043-.325-.864,4.651-1.752.731.035,4.706,2.3-.405.829-.905.179c-.006-.075-.954-4.733-.988-5.393v-.012c.377-1.352,1.194-1.621,2.26-2.911,1.008-1.035,2.01-2.022,2.013-2.024l.647.658-.094.918-4.4-.449-.712-.468-1.81-3.24L523.785,76l-.81.505-3.338.044,1.945,2.818a.923.923,0,0,1-1.1,1.382,32.445,32.445,0,0,0-10.041-2.127,8.825,8.825,0,0,0-3.821.717c-4.66,2.3-4.486,4.905-4.588,4.906l-.922-.035-.341-.858,4.987-1.982.785.049c.092.072,3.612,1.94,4.173,2.4l0,0-.638.65v-.91a.907.907,0,0,1,.638.26l-.638.65v-.013l-.868-.265c.051-.01-.01-.488.868-.632v.9l-.868-.265-.021-.024c0-.455-.068-1.548-.145-2.5-.038-.481-.078-.934-.11-1.27-.014-.275-.066-.385-.026-.4l.872-.3-.866.32a.917.917,0,0,1-.058-.324c.308-1.134.434-.735.848-1.365,1.119-1.229,3.3-3.439,3.306-3.443l.657.648-.166.908c-.03-.008-3.671-.668-4.379-.864-1.612-.866-3.358-4.872-3.6-5.014l.8-.452.858.338-1.853,4.7-.8.583c-.006-.009-5.5.378-5.508.386h0l-.233-.876h.908a.961.961,0,0,1-.675.876l-.233-.876h.17l.646-.384c-.008.031.055-.022.092.384h-.738l.646-.384c.18.353,3.172,3.573,3.172,3.579a.923.923,0,0,1-.948,1.512,42.382,42.382,0,0,0-10.3-1.8,8.609,8.609,0,0,0-3.221.493,6.9,6.9,0,0,0-3.439,2.994c-.864,1.021-.143,1.8-1.962,2.5l-.095,0,.083-.919-.071.92a1.038,1.038,0,0,1-.92-.961c.373-1.254.6-.794.944-1.211.513-.33,1.227-.729,1.838-1.069.3-.169.581-.322.782-.436.1-.057.182-.1.232-.135l.178.292-.237-.231.059-.061.178.292-.237-.231a.948.948,0,0,1,.684-.286c1.09.215,1.5.8,2.725,1.5a18.5,18.5,0,0,0,2.126,1.206v.78l-.031-.78h.031v.78l-.031-.78h.023l.009.668-.6-.306a.719.719,0,0,1,.59-.362l.009.668-.6-.306.089.046h-.125l.036-.046.089.046h-.125a32.065,32.065,0,0,0-1.009-3.885h0a1.13,1.13,0,0,1-.016-.19c.407-2.012,3.986-4.823,4.413-5.369h0l.556.719h-.907a.914.914,0,0,1,.351-.719l.556.719h-.05l-.3.834c.027-.108-.3.215-.56-.834h.857l-.3.834c-.148-.092-4.535-.482-5.158-.573-1.443-.65-1.39-1.665-2.194-2.914-.3-.594-.576-1.179-.79-1.6-.107-.209-.2-.38-.253-.47l-.026-.044.654-.527v.818c-.693-.106-.589-.3-.654-.291l.654-.527v-.087l.237.874a.9.9,0,0,1-.237.031v-.906l.237.874-.007,0-.2-.773.655.483c-.05.012.026.106-.452.29l-.2-.773.655.483c-.249.277-1.426,3.493-1.941,4.179h0c-1.046.7-4.443,1.248-5.24,1.507l-.178-.832h.847c.065.308-.417.832-.669.832l-.178-.832h.418l.384-.279c-.039.029,0,0,.046.279h-.429l.384-.279a15.817,15.817,0,0,0,1.556,1.558c.748.768,1.04.759,1.526,1.571l0,.006a.951.951,0,0,1,.054.345,19.916,19.916,0,0,1-1.252,5.519c-1.259,1.6-4.056,1.533-4.6,2.084-4.245,2.932-6.3,8.37-6.3,14.243-.013,7.836,3.7,16.221,10.027,19.793,5.959,3.461,25.947,5.287,45.539,5.254h.783c15.992-.021,33.593-.8,41.412-4.016,7.31-2.873,9.775-13.844,9.74-24.55a77.519,77.519,0,0,0-2.014-17.725c-2.666-10.036-6.385-14.162-36.835-14.792-10.234-.161-21.015-.543-31.034-.543-18.631-.078-34.706,1.524-39.186,7.513-3.842,4.842-5.6,16.108-5.572,26.438-.049,9.438,1.509,18.346,3.413,20.574,3.99,5.386,11.537,2.264,14,8.188a20.907,20.907,0,0,1,1.3,6.464c.034,3.8-2,7.349-7.458,10.351l-.45-.806.194-.9c.238.038,7.351,1.718,14.52,14.521,3.433,6.131,6.61,10.879,7.915,12.217,1.053,1.293,4.378,2.731,4.683,5.24a1.848,1.848,0,0,1-.454,1.208c-1.479,1.4-4.917,1.55-8.561,1.657-2.6-.018-5.017-.218-6.472-.933-2.781-1.5-3.482-4.885-3.5-7.388a10.582,10.582,0,0,1,.074-1.277,3.83,3.83,0,0,0,.027-.445c-.039-1.712-1.1-3.51-4.831-4.115-4.684-.765-11.982-6.245-13.78-6.077h-.023c-1.816-.053-4.07,2.652-6.258,4.15-.374.144-1.059,1.632-1.017,4.023a32.145,32.145,0,0,0,2.941,12.163c3.519,8.091,5.823,11.279,10.137,11.256a10.849,10.849,0,0,0,1.623-.13,9.7,9.7,0,0,0,7.452-5.105l.85.361.616.687c-5.911,5.172-9.331,3.439-9.314,4.667a1.573,1.573,0,0,0-.14.722c-.065,1.938,2.265,6.489,4.361,14.605,1.7,6.651,3.708,8.592,5.362,8.5a5.305,5.305,0,0,0,2.823-1.094c1.306-.6,2.8-7.419,3.511-14.142.855-6.843,1.328-13.633,2.319-15.972,1.57-3.109,6.411-3.949,10.7-4.03,2.713.02,5.181.4,6.712,1.428,1.852,1.37,2.32,3.99,2.35,7.169a55.117,55.117,0,0,1-2.2,13.667,6.953,6.953,0,0,0-.247,1.844c-.029,3.482,2.619,7.214,5.427,10.091,2.906,3.1,5.377,4.444,6.062,5.766a1.572,1.572,0,0,1,.056.41c-.423,2.013-2.171,2.223-6.731,3.176a54.756,54.756,0,0,1-8.52.545c-4.887,0-10.2-.388-13.439-1.282a16.987,16.987,0,0,0-4.489-.532,40.372,40.372,0,0,0-11.661,2.024c-4.427,1.3-10.956.58-11.382,1.7h-.012A5.335,5.335,0,0,0,465.62,224a19.084,19.084,0,0,0,6.9,1.339c4.476.083,11.915-4.982,17.038-5.073a5.009,5.009,0,0,1,2.543.615c1.95,1.133,3.2,2.749,3.218,4.544-.026,2.4-2.279,4.187-6.074,4.618-6.579.8-90.858,1.162-93.417,1.571a9.258,9.258,0,0,1-1.393.1c-2.853-.266-6.113-.426-6.765-2.942a1.346,1.346,0,0,1,.018-.22v0c.012,0,.028-.965.023-2.372,0-4.836-.106-15.792-.106-25.484,0-4.743.025-9.184.1-12.469.038-1.643.088-3,.156-3.968.034-.487.071-.876.12-1.184.2-.343-.251-.434.716-1.142,1.132-.324,19.621-.812,37.737-.846,7.923,0,15.647.115,21.517.434,6.006.519,9.556.391,10.994,2.136,1.192,2.478,1.279,10.223,1.32,17.806,0,6-.142,11.68-.141,13.625,0,1.677.117,4.374.117,7.134-.13,4.44.02,8.84-2.283,10.556-2.311,1.167-24.037,1.958-43.189,2.027-13.269-.077-24.378-.313-27.031-2-3.194-2.332-3.742-6.415-3.752-9.937,0-2.281.249-4.411.308-5.784.008-.182.012-.366.012-.552a17.8,17.8,0,0,0-1.593-7.212h0l.254-.277v.38a.415.415,0,0,1-.254-.1l.254-.277v.38a28.029,28.029,0,0,0-3.033,1.948c-2.227,1.214-6.672,1.436-6.553,1.653h0l-.039.033c0,.02.107.511,1.673.986a3.889,3.889,0,0,0,1.123.135,20.447,20.447,0,0,0,7.857-2.2,10.116,10.116,0,0,0,.7-4.771,68.922,68.922,0,0,0-1.354-12.459c-.98-6.468-13.9-12.042-14.63-11.91v-.693l.271.631a.662.662,0,0,1-.271.062v-.693l.271.631-.364-.848-.032-.922c1.215.105,2.952-1.88,5.273-8a.923.923,0,0,1,1.741.61l-.1.327a.923.923,0,1,1-1.76-.555c1.3-4.091,2.3-8.39,2.289-10.31,0-.092,0-.178-.006-.257h0c-.007-.125-.01-.254-.01-.385.013-2.329.89-5.976,1.084-9.756q.009-.177.009-.37a25.92,25.92,0,0,0-1.434-6.952c-.367-1.144-.741-2.171-1.031-2.918-.145-.373-.268-.678-.358-.889-.044-.105-.081-.188-.1-.239l.271-.125-.232.174-.039-.049.271-.125-.232.174.546-.41-.124.7c0-.026-.1.061-.422-.293l.546-.41-.124.7c-.063-.02-.7-.036-1.772-.031-1.458,0-3.836,0-7.552-.108a34.474,34.474,0,0,1-14-3.712l.444-.81.338.859c-4.484,1.511-6.549,13.127-6.569,13.138a.923.923,0,0,1-1.823,0,31.24,31.24,0,0,1-.42-4.936c-.052-8.986,4.912-12.379,6.887-13.646,1.826-1.188,5.775-2.268,10.381-2.288a23.8,23.8,0,0,1,6.775.936c6.965,2.124,10.367,6.753,10.949,9.228a3.091,3.091,0,0,1,.071.648c-.223,2.791-3.241,3.608-7.784,3.692h-.121c-4.569-.034-9.792-2.685-12.047-2.62a1.549,1.549,0,0,0-.66.111c-.7.006-1.426,4.31-1.28,6.637,0,.963.038,1.608.036,1.61a.923.923,0,0,1-.77.962c-.007,0-.24-.066-1.777,1.376-.349.165-.6,2.009-.539,3.568v.332a13.281,13.281,0,0,1-.063,1.615,1.266,1.266,0,0,1-2.095,1.093c-1.666-1.562-3.666-6.489-4.3-6.211l-.1-.007c-.336,0-1.221.554-1.242,2.752a11.378,11.378,0,0,0,.588,3.37c1.443,4.526,4.367,4.766,4.36,4.843a.924.924,0,0,1,.781.995q-.047.52-.047,1.04a13.374,13.374,0,0,0,7.22,11.639c4.982,2.507,10.187,4.294,10.247,10.2a10.781,10.781,0,0,1-.076,1.258c-.26,2.691-2.59,3.866-4.847,3.776a20.453,20.453,0,0,1-11.648-4.732,13.933,13.933,0,0,1-4.125-10.12,15.261,15.261,0,0,1,.642-4.508l.874.3.2.9c-.017,0-8.981,2.049-15.1,2.738-4.022.458-10.217,2.068-12.9,8.259a14.4,14.4,0,0,0-1.109,5.765c-.006,5.909,2.9,13.52,9.561,21.412,3.959,4.788,8.953,15.64,13.148,17.715.815.491,4.825.855,9.755.823,6.7,0,15.455-.468,22.579-1.039,3.562-.286,6.718-.6,9-.885,1.14-.145,2.065-.284,2.694-.407a7.034,7.034,0,0,0,.689-.162l.093-.032.3.616-.572-.354c.178-.253.259-.244.268-.261l.3.616-.572-.354h0a6.626,6.626,0,0,0,.327-2.433,11.856,11.856,0,0,0-.114-1.719,3.555,3.555,0,0,0-.113-.52l.231-.075-.122.153c-.137-.041-.094-.083-.108-.078l.231-.075-.122.153h0l-.111.033c-4.17-1.07-32.787-6.051-34.439-7.041-1.287-1.006-8.81-9.8-11.051-15-3.186-7.807-7.78-17.174-14.259-17a8.175,8.175,0,0,0-1.963.247c-6.851,1.709-7.363,7.137-7.425,11.264,0,.7.02,1.352.029,1.926.081,5.909,5.112,27.337,5.131,34.224-.1,1.171.131,2.041-1.022,2.8-3.021,1.171-51.105,1.109-51.28,1.152v-.923h.923v81.782a.922.922,0,0,1-.926.923c-.039,0-22-.077-38.327-.077-8.159,0-14.925.02-16.764.077q-.322.01-.65.01c-5.774-.012-12.837-2.216-21.813-4.328a124.574,124.574,0,0,0-13.894-2.546c-4.479-.922-4.891-5.2-5.146-7.708h0c-.115-1.981-8.25-15.928-15.4-26.57-7.234-10.887-12.229-25.971-14.988-28.772a3.733,3.733,0,0,0-2.841-1.025c-2.746-.023-6.039,1.766-6.054,1.751l-.444-.809-.4-.83a14.388,14.388,0,0,1,5.406-1.37,4.427,4.427,0,0,1,3.75,1.657C146.44,251.7,155.7,274.939,161.96,283.6c6.553,9.262,8.939,15.517,10.981,15.764a.743.743,0,0,0,.191.019c2.434.161,11.018-6.271,15.513-6.395a3.148,3.148,0,0,1,1.573.373c3.71,2.26,2.76,4.685,6.759,7.529,4.289,3.344,14.173,7.342,14.5,13.119a4.323,4.323,0,0,1-.034.533h0c-.018,1.862-1.078,4.737-5.841,4.5a36.644,36.644,0,0,1-6.346-.706c-8.009-1.469-10.65-3.038-11.653-2.96a1.389,1.389,0,0,0-.877.339h0a7.4,7.4,0,0,1-4.165,1,14.61,14.61,0,0,1-6.76-1.565h0a3.933,3.933,0,0,1-1.928-3.6c.007-1.058.241-2.028.227-2.386l0-.062h0a60.286,60.286,0,0,1-.827-6.244c.093-.7-.162-1.435.949-2.078.283-.092,4.774-2.347,8.969-4.689,2.116-1.178,4.2-2.4,5.735-3.407a18.862,18.862,0,0,0,1.795-1.3,3.286,3.286,0,0,0,.406-.4l.241.192h-.256c-.029-.191.026-.183.015-.192l.241.192h.454l-.681.2a.7.7,0,0,1-.029-.2h.71l-.681.2v0c-.092-.811-7.436-8.383-14.564-20.433s-7.657-12.611-12.173-25.489c-4.539-12.818-6.959-13.41-10.289-17.743a.925.925,0,0,1-.018-1.1,69.354,69.354,0,0,0,3.928-6.275c1.9-3.462,16.108-30.129,16.124-30.16l.815.434-.826-.413c2.488-4.974,4.135-8.738,4.133-13.221,0-.559-.025-1.13-.078-1.717-.072-5.512-10.3-4.707-15.4-11.019-2.1-2.937-3.016-9.921-3.056-18.108.035-11.485,1.985-24.945,7.094-31.08,4.64-5.337,15.255-6.441,28.424-6.492,13.17,0,28.907,1.293,43.49,1.581,29.128.437,35.326,4.684,37.611,15.757a84.764,84.764,0,0,1,1.527,16.489c-.057,12.042-2.239,25.882-11.687,29.48-6.057,2.189-16.456,2.81-27.721,2.819-4.786,0-9.72-.118-14.513-.292-20.037-.76-40.159-3.137-46.992-7.31-7.628-4.8-11.084-16.207-11.11-26.649.007-6.294,1.271-12.269,3.912-16.366a12.249,12.249,0,0,1,10.4-6.066c5.829.018,11.313,4.223,12.121,9.879a24.089,24.089,0,0,1,.23,3.264c-.012,7.566-4.2,13.2-11.479,13.209a16.067,16.067,0,0,1-2.332-.176,9.739,9.739,0,0,1-8.2-9.251,4.8,4.8,0,0,1,1.888-4.083c4.332-2.565,10.026-.668,9.876-4.326.014-.189.02-.367.02-.536-.09-2.36-.965-2.626-1.944-2.769-.072,0-.143-.006-.215-.006-1.421.093-2.36.5-2.415,2.26v.046c-.017,3.382,2.311,2.93,6.39,5.359a18.589,18.589,0,0,0,9.392,2.773,12.359,12.359,0,0,0,2.663-.276h0s.7-.156,1.44-.392a8.626,8.626,0,0,0,1.021-.386c.275-.112.268-.193.322-.159a19.965,19.965,0,0,0,.776-3.4h.831l-.789.257a.73.73,0,0,1-.042-.257h.831l-.789.257,0,.007-.141,0c-.71-.868-1.861-1.272-2.26-2.757a1.044,1.044,0,0,1,.789-.96c.192-.038,1.093-.236,1.934-.434.421-.1.834-.2,1.137-.281.151-.04.276-.076.349-.1l.163.509-.356-.356c.168-.229.2-.122.193-.153l.163.509-.356-.356.48.48-.6-.331c.01,0-.026.011.118-.149l.48.48-.6-.331c.064-.107.422-.926.738-1.638.162-.364.323-.718.461-1,.335-.356-.189-.309.871-.931l.009,0a.936.936,0,0,1,.219-.026c1.538.649.685.655,1.167,1.082.261.532.605,1.291.922,1.913.156.309.308.583.417.75a1.207,1.207,0,0,0,.1.138l-.464.43.108-.6c.338.086.345.18.356.17l-.464.43.108-.6h0c.126.026,1.218.141,2.184.25.493.057.972.114,1.344.169.188.028.345.054.487.085a1.78,1.78,0,0,1,.238.067c.036.132.383-.167.644.894a.936.936,0,0,1-.375.748c-.006-.006-.823.746-1.546,1.493-.375.384-.743.782-1,1.1a3.662,3.662,0,0,0-.271.37l-.253-.154h.258c.039.18-.017.146,0,.154l-.253-.154h-.512l.759-.124.01.124h-.77l.759-.124v.009a18.125,18.125,0,0,1,.759,3.25,1.275,1.275,0,0,1-1.148,1.338,6.2,6.2,0,0,1-2.521-1.221c-.413-.272-.808-.54-1.1-.732-.147-.1-.271-.172-.344-.213l.243-.43v.457c-.282.042-.228-.053-.243-.027l.243-.43v-.443l.635.636a.892.892,0,0,1-.635.265v-.9l.635.636a12.709,12.709,0,0,1-1.607.93c-.323.177-.641.357-.855.491-.106.066-.188.124-.21.142l-.472-.593h.709c-.113.592-.284.533-.237.593l-.472-.593h-.159l.08-.887a.964.964,0,0,1,.789.887h-.869l.08-.887h0l-.076.8v-.808l.076,0-.076.8v-.13l-.579-.417a.7.7,0,0,1,.579-.262v.678l-.579-.417a7.7,7.7,0,0,1,4.179-4.328,7.933,7.933,0,0,1,2.943-.47,33.732,33.732,0,0,1,8.613,1.579l-.285.877-.682.622s-.637-.7-1.277-1.428c-.695-.974-1.157-.953-1.5-2.184a.99.99,0,0,1,.7-.906h0c.531-.1,4.485-.273,4.572-.287l.047.922-.854-.349,1.48-3.612a.922.922,0,0,1,1.664-.092s.461.847.973,1.7c.254.428.522.858.738,1.167a4.263,4.263,0,0,0,.258.342l-.316.274.109-.362c.258.042.189.1.207.087l-.316.274.109-.362c.293.094,3.217.674,3.22.675a.923.923,0,0,1,.469,1.563s-.758.747-1.514,1.514c-.378.383-.755.771-1.03,1.065-.137.146-.249.271-.315.349l-.049.06-.662-.472h.8c-.075.562-.145.412-.137.472l-.662-.472h-.116l.848-.343a.9.9,0,0,1,.067.343h-.915l.848-.343.02.053a32.09,32.09,0,0,1,.258,3.68c0,.113,0,.207-.011.313a1.193,1.193,0,0,1-.036.217c-.082.021.1.5-.906.708a.934.934,0,0,1-.677-.293l.671-.634-.653.653.012-.012-.018.028.006-.015.012-.012-.018.028c-.6-.377-2.841-1.648-2.843-1.649l.455-.8.329.862-3.873,1.48a.923.923,0,0,1-1.251-.909c-.02-.216.336-3.188,4.531-5.138a8.242,8.242,0,0,1,3.5-.672,26.359,26.359,0,0,1,8.512,1.872l-.351.853-.767.514-2.219-3.307a.923.923,0,0,1,.767-1.437h3.359l1.611-3.074a.923.923,0,0,1,1.629-.011l1.773,3.276,2.917.337a.923.923,0,0,1,.533,1.583s-.778.746-1.553,1.52c-.387.387-.773.782-1.051,1.083-.138.149-.251.278-.313.356l-.04.052-.654-.413h.762c-.036.41-.111.377-.108.413l-.654-.413h.762c-.025.009.687,3.876.681,3.88a.923.923,0,0,1-1.324.991l-3.257-1.648-3.236,1.17a.923.923,0,0,1-1.235-.923c-.028-.173.385-3.823,5.155-5.389a9.68,9.68,0,0,1,3.051-.445,25.258,25.258,0,0,1,8.709,2l-.371.845-.688.615-2.524-2.828a.923.923,0,0,1,.58-1.531,26.852,26.852,0,0,0,3.848-.7,4.493,4.493,0,0,0,.9-1.438c.2-.386.386-.768.529-1.061.072-.148.132-.271.188-.376.029-.054.054-.1.1-.165.172-.04-.222-.194.805-.456a1.082,1.082,0,0,1,.929.938h-.229l.241-.092-.012.092h-.229l.241-.092c.287.756,1.593,3.474,1.594,3.477l-.831.4.062-.921c.005,0,.928.062,1.865.157.47.048.94.1,1.323.167a4.466,4.466,0,0,1,.532.118c.1.168.494-.192.809.976a.963.963,0,0,1-.283.678c-.094.094-.739.783-1.339,1.456-.3.34-.6.682-.819.952-.11.135-.2.252-.257.331l-.016-.011v0c-.024,0-.008.106.006.387,0,1.061.127,3.087.127,3.09a.923.923,0,0,1-1.381.858l-3.074-1.768-2.705,1.2a.922.922,0,0,1-1.3-.811v-.035c-.012-.407.254-2.354,3.591-4.827a6.264,6.264,0,0,1,3.778-1.028,26.665,26.665,0,0,1,8.759,2.1l-.366.847-.7.6s-.559-.652-1.12-1.325c-.626-.933-.976-.8-1.327-2.011,0-.249.5-.928.928-.929,0,.008.883-.083,1.722-.2.437-.058.879-.125,1.2-.188.162-.031.3-.063.369-.084l.121.415-.283-.282c.145-.189.167-.113.162-.132l.121.415-.283-.282.01-.044c.425-.717,1.634-3.264,1.636-3.268a.923.923,0,0,1,1.692.054s.322.81.762,1.638a8.294,8.294,0,0,0,.69,1.114c.208.3.321.293.307.349,1.036.259,3.208.78,3.212.781a.922.922,0,0,1,.473,1.512s-.688.771-1.371,1.6c-.341.412-.681.84-.921,1.174-.119.165-.214.31-.264.4l-.276-.157h.277c.05.186-.018.148,0,.157l-.276-.157h-.553l.786-.266a.838.838,0,0,1,.044.266h-.831l.786-.266v0a18.033,18.033,0,0,1,.456,3.269,2.005,2.005,0,0,1-.031.388c-.057.057.031.647-.951.821-1.018-.216-1.154-.591-2.115-1.1-.382-.237-.768-.473-1.066-.639-.148-.083-.275-.148-.351-.183l.126-.277v.277h-.126l.126-.277v-.576l.38.762a.839.839,0,0,1-.38.09v-.853l.38.762h0c-.169.081-3.6,2.061-3.607,2.062a.923.923,0,0,1-1.353-1.036l.74-2.785a.923.923,0,0,1,1.815.248c0,.095-.258,8.205-9.8,9.131-.789.077-1.775.11-2.938.11-10.4,0-35.474-2.647-45.5-2.644a15.294,15.294,0,0,0-3.68.279c-1.224.831-2.279,2.294-2.222,3.11-.022.656.522,1.662,4.135,2.1,7.467.82,63.489,2.982,65.731,3.847,1.517.9,1.613,2.7,1.713,4.625-.063,2.126-.391,4.529-2.355,5.485a9.276,9.276,0,0,1-2.642.2c-11.648,0-62.063-3.534-66.082-3.531h-.095c-.013.022-.044-.02-.145.229-1.383,2.67.47,17.533-16.115,27.316l-.062.034c-12.348,6.135-27.328,7.469-29.7,8.129-.78-.185-5.7,8.7-9.357,17.208-3.917,8.674-7.282,17.036-7.822,17.878a.923.923,0,0,1-1.648-.769,9.962,9.962,0,0,0,.282-2.4,7.122,7.122,0,0,0-.413-2.513c-.374-1.121-2.54-2.609-3.11-2.972-.922-.723-5.192-1.517-5.192-1.526l.156-.909.253-.887a17.8,17.8,0,0,0,3.777.6c2.558.146,3.66,2.316,4.179,2.319a1.385,1.385,0,0,0,.465.093c.177-.075.117,0,.178-.075a1.063,1.063,0,0,0-.049-.286,13.216,13.216,0,0,0-2.29-2.981,19.656,19.656,0,0,0-1.636-1.562,5.363,5.363,0,0,0-.584-.433l.006-.054v-.709l.208.677a.709.709,0,0,1-.208.032v-.709l.208.677h0l-.21-.682h.561c-.141.812-.362.645-.351.682l-.21-.682h-.124l.52-.482c-.012.012.134.065.164.482h-.685l.52-.482a3.044,3.044,0,0,1,.8,1.029h0l-.308.128.156-.354c-.02.045.03-.012.153.226l-.308.128.156-.354a7.734,7.734,0,0,0,2.395.265,18.84,18.84,0,0,0,3.44-.312,3.985,3.985,0,0,0,1.336-.439l.067.1h-.031l-.036-.1.067.1h-.031l-.1-.031c-.63-.691-5.175-.958-8.932-2.007a2.09,2.09,0,0,0-.592-.085,3.737,3.737,0,0,0-2.817,2.163h-.063l.052-.023.011.023h-.063l.052-.023h0l-.644.289v-.685a.742.742,0,0,1,.644.4l-.644.289v-.428l-.241-.231c.05.047.006.006.241-.026v.257l-.241-.231a3.516,3.516,0,0,0,.756-2.088c-.082-.891-.217-1.529-2.1-1.891-4.618-.706-11.433-3.419-14.944-6.9a.925.925,0,0,1-.158-1.091l.724.393h-.825a.8.8,0,0,1,.1-.393l.724.393h-.036l-.391.7a.831.831,0,0,1-.4-.7h.789l-.391.7.1-.174v.231c0-.047,0-.009-.1-.058l.1-.174v.231a13.645,13.645,0,0,0-3.2.76c-4.192,1.312-4.878,2.428-4.963,2.364l-.709-.591-.271-.882c.006,0,5.677-1.747,5.9-1.821h0l.29.869h-.911c.122-.836.595-.82.621-.869l.29.869h-.008l-.356.839c0-.1-.339.122-.548-.839h.9l-.356.839-.092,0c-.516-.084-1.721-.23-2.776-.361-.53-.066-1.026-.129-1.4-.181-.188-.026-.341-.05-.468-.073-.065-.012-.119-.023-.193-.042a1.137,1.137,0,0,1-.166-.058c-.026-.1-.375.068-.557-.851a.93.93,0,0,1,.409-.768l0,0c.552-.3,7.4-2.7,7.511-2.754a.923.923,0,0,1,.8,1.651,1,1,0,0,1-.527.149c-1.143-.232-1.24-.864-1.722-2.537a13.2,13.2,0,0,1-.313-3.035c.008-4.639,1.669-10.654,3.272-16.408,1.931-6.886,3.365-11.952,3.357-15.945a14.523,14.523,0,0,0-.132-2.014c-.044-.695-1.3-2.545-2.677-3.943a19.964,19.964,0,0,0-1.959-1.817,6.555,6.555,0,0,0-.71-.5,1.389,1.389,0,0,0-.182-.094l.11-.279v.289l-.11-.01.11-.279v-.485l.647.4a.8.8,0,0,1-.647.373v-.774l.647.4c-1.114,1.691-3.723,4.078-6.424,4.379a4.2,4.2,0,0,0-1.4.266L98,157.518h.473a.56.56,0,0,1-.206.509L98,157.518h-.394l.849-.175a.849.849,0,0,1,.018.175h-.867l.849-.175.018.209c-.041,2.343-2.23,4.185-5.423,4.133a13.077,13.077,0,0,1-4.042-.718A11.276,11.276,0,0,1,80.723,149.9q0-.532.042-1.074a12.461,12.461,0,0,1,5.437-9.246l.482.788-.653-.652.238.237h-.383c.04,0-.033-.043.145-.237l.238.237h-.383c.078-.647-1.4-3.691-1.431-6.2a4.074,4.074,0,0,1,.583-2.235,4.385,4.385,0,0,1,3.576-2.246,2.681,2.681,0,0,1,2.6,1.741,13.2,13.2,0,0,1,.258,3.295c.111,1.057.2,1.052.265,1.05.423.682,2.623-5.715,6.5-7.263a9.3,9.3,0,0,0,3.992-2.2.923.923,0,0,1,1.6.228c.009.014,2.411,6.221,8.329,6.146.148,0,.3,0,.451-.011,6.529-.322,8.363-4.863,8.426-4.844l.846.369-.494.78c-.121-.076-2.591-1.683-6.248-7.11-3.76-5.642-4.366-9.51-9.388-9.456a35.029,35.029,0,0,0-7.382.792,13.127,13.127,0,0,0-2.345.72,2.339,2.339,0,0,0-.495.278l-.258-.308H95.6c-.018.315-.084.3-.081.308l-.258-.308h-.28l.541-.3a.627.627,0,0,1,.077.3h-.618l.541-.3h0l-.531.295v-.542c.422.018.53.246.531.247l-.531.295v-.009H94.32s-.023-.438.676-.533v.533H94.32s.016-.023-.108-.071a2.505,2.505,0,0,0-1.406-.29,7.691,7.691,0,0,0-.829.048c-3.453.154-6.133,6.806-6.849,11.594a35.429,35.429,0,0,0-.581,5.768c.012,3.276.792,4.391,1.665,6.691l-.863.327-.9.2a20.669,20.669,0,0,1-.437-4.109c.02-2.235.386-5.032,2.726-6.365a4.978,4.978,0,0,1,2.407-.636c1.923.049,3.237.955,4.368.9A3.319,3.319,0,0,0,95.7,126.6c2.945-2.313,5.409-6.521,9.174-6.686a4.444,4.444,0,0,1,2.337.692c4.2,2.83,3.251,6.2,6.51,6.491a18.744,18.744,0,0,0,2.909.234,12.8,12.8,0,0,0,3.282-.375.922.922,0,0,1,1.1,1.311c-.069.042-2.1,4.224-6.291,4.323-.06,0-.122,0-.184,0l.031-.922.57-.725a3.455,3.455,0,0,1,1.281,2.561,3.119,3.119,0,0,1-.4,1.509v0c-.012.018-6.308,11.58-8.516,14.868-2.1,3.112-3.2,5.326-6.257,6.918a3.4,3.4,0,0,1-1.584.375c-3.466-.124-6.749-3.966-6.856-3.986l.674-.63.672.632c-.1.023-2.324,2.672-5.08,2.773a3.29,3.29,0,0,1-.648-.063,8.3,8.3,0,0,1-5.976-8.212q0-.47.047-.962a14.036,14.036,0,0,1,.231-1.574c0-.214-.05-.914-.175-2.924l.921-.057-.042.922h-.009c-.231,0-2.765.065-9.142,2.438-4.52,1.649-10.5,7.679-10.514,7.674l-.081.073c-5.772,4.563-11.538,17.3-14.144,25.666-2.414,7.639-5.624,22.929-5.615,31.768,0,.824.028,1.591.085,2.284.572,7.734,8.467,9.179,8.472,9.206l-.167.907-.736.556a14.158,14.158,0,0,1-2.524-7.879,12.117,12.117,0,0,1,.293-2.66c.771-2.869,4.3-4.726,7.569-6.473,1.646-.844,3.253-1.591,4.431-2.2a13.034,13.034,0,0,0,1.365-.789,1.929,1.929,0,0,0,.279-.227l.268.248-.333-.043c.038-.216.069-.2.065-.2l.268.248-.333-.043.664.085h-.669l.006-.085.664.085h.057l-.324.659a.775.775,0,0,1-.4-.659h.727l-.324.659.084-.171v.212l-.084-.041.084-.171v.212C61.856,204.28,51.542,208.7,51.329,209h0a.988.988,0,0,1-.668.251c-.424,0-.936-.664-.938-.939.353-1.294,1.1-1.639,3.1-3.306a35.407,35.407,0,0,1,9.208-4.654c8.958-3.359,4.157-1.551,6.891-12.742,2.252-8.738,4.078-13.422,7.06-13.909a2,2,0,0,1,1.661.994,2.241,2.241,0,0,1,.3,1.241c-.078,5.068-8.858,24.45-10.128,27.958a1.163,1.163,0,0,0-.081.415c-.153.737,1.5,2.012,3.573,2.724a31.234,31.234,0,0,0,4.033,1.1l.062,0c12.23.824,19.708,4.524,19.785,4.561a.923.923,0,0,1-.41,1.75,10.165,10.165,0,0,0-1.872.38c-.6-.223-1.343,3.246-3.3,8.778-1.639,4.137-5.981,4.869-11.072,4.856-2.749,0-5.832-.21-9.112-.322a52.49,52.49,0,0,1-15.543-3.373l.345-.856h.923a81.086,81.086,0,0,0,.973,11.69c.9,5.932,3.136,11.331,5.984,11.071.076,0,.153,0,.232-.009h0c7.15-.248,17.411-18.656,17.446-18.665l.812-.485c.008,0,1.717.022,8.373-1.795,6.508-1.763,4.542-3.145,8.019-4.268a7.756,7.756,0,0,1,1.936-.224,16.52,16.52,0,0,1,5.057.949.923.923,0,0,1-.081,1.756,22.558,22.558,0,0,1-5.057.731,4.579,4.579,0,0,1-3.618-1.214,5.269,5.269,0,0,1-.911-3.284c.138-2.456.629-5.376,3.053-5.935,3.149-.2,7.623-4.179,10.805-4.333a2.669,2.669,0,0,1,.9.148c2.373.856,7.214,3.28,10.637,4.59,2.253.856,3.3,2.382,3.308,3.752a1.815,1.815,0,0,1-1.676,1.929,1.67,1.67,0,0,1-.242-.018h0c-1.624-.294-4.072-2.07-4.932-2.356a34.422,34.422,0,0,0-4.887-.333.923.923,0,0,1-.045-1.844c.012,0,.251-.012.624-.012,1.151.063,3.343-.056,4.719,1.152.664.811,2.752.881,3.939,2.263a2.222,2.222,0,0,1,.414,1.243,2.132,2.132,0,0,1-2.36,1.86c-.085,0-.171,0-.259-.007h0c-1.8-.106-5.774-1.166-6.565-1.27h0l.078-.551V221L111.75,221l.078-.551V221a17.733,17.733,0,0,0-3.611,1.688,19.555,19.555,0,0,0-2.173,1.41,4.489,4.489,0,0,0-.6.537l-.105-.092h.06l.045.092-.105-.092h-.608l.54-.392a.683.683,0,0,1,.129.392h-.668l.54-.392-.45.327.269-.5c0,.006.039,0,.181.174l-.45.327.269-.5c1.427.859,23.137,3.957,23.149,3.981l-.129.914v-.923c5.275.077,27.74-3.014,30.182-4.96,2.515-1.442,18.567-34.7,18.332-35.083h.84l-.8.257a.822.822,0,0,1-.041-.257h.84l-.8.257.879-.282-.875.292.7-.234-.191.764c.014-.058-.16.134-.511-.529l.7-.234-.191.764a9.423,9.423,0,0,0-1.4-.063c-6.1-.015-27.251,1.695-27.516,1.79l-.173-.693.625.412c-.057-.023.011.047-.452.281l-.173-.693.625.412c-1.176,1.731-13.746,32.287-16.375,38.893l-.857-.343.391-.836c.068.049,6.23,2.863,6.384,9.612,0,.134,0,.267,0,.4a28.56,28.56,0,0,1-1.362,8.8l-.023.056c-3.428,7.884-5.5,17.27-6.629,29.309-.292,3.116-.371,6.424-.371,9.617,0,3.748.11,7.336.11,10.295-.241,4.173.372,7.023-2.043,8.066a3.46,3.46,0,0,1-.558.039c-3.762-.018-19.8-4.077-20.249-4.03v-.365l.276.3c-.024-.026,0,.05-.276.065v-.365l.276.3c-.514.343-1.915,3.855-1.838,5.607,0,.066,0,.13,0,.191h0c-.013,1.632.272.757,5.709,3.438,4.2,2.312,7.539,4.837,7.969,6.757,0,.543-.748,1.043-1.072,1.044a2.488,2.488,0,0,1-1.053-.312h0a12.564,12.564,0,0,1-5.119-3.8h0c-1.067-1.341-4.9-2.705-6.012-2.639l-.138.006h0c-.244.175-.076,0-.174.384,0,.249.03.617.031,1.061h-.272l.117-.133c.172.113.157.129.154.133h-.272l.117-.133.113.012a24.923,24.923,0,0,1,4.964,1.872h0c5.223,2.637,11.734,11.243,15.938,11.508a10.689,10.689,0,0,0,1.078.055c3.452,0,5.767-1.829,5.773-2.829a1.105,1.105,0,0,0-.051-.328h0c-.636-2.143-3.107-5.413-6.27-11.807-1.9-4.018-2.962-6.4-3.577-6.5-.27-.162-5.12-1.1-9.55-2.263-4.475-1.412-8.9-2.193-9.442-5.2a1.8,1.8,0,0,1,.039-.38h0c.618-2.882,4.756-35.353,4.743-42.063a6.779,6.779,0,0,0-.045-.883c.022-.253-2.989-1.427-6.09-1.623-3.123-.357-6.159-.413-6.165-.415l.018-.923v.923H1.423a.923.923,0,1,1,0-1.846H97.058c.017,0,3.109.058,6.339.426,3.253.529,6.52.658,7.632,2.874a5.149,5.149,0,0,1,.14,1.467c-.013,7.12-4.117,39.226-4.783,42.443h0c-.025.062.55.831,2.159,1.475,4.77,2.132,14.435,3.762,15.75,4.31,1.938,1.054,2.459,3.454,4.469,7.369,3.1,6.312,5.505,9.346,6.378,12.078h0a2.965,2.965,0,0,1,.134.874c-.2,2.984-3.727,4.614-7.618,4.675a12.43,12.43,0,0,1-1.265-.065h0c-5.723-.746-11.913-9.56-16.553-11.681h0a22.836,22.836,0,0,0-4.414-1.689c-.6,0-1.769-.912-1.553-1.724,0-.348-.03-.689-.031-1.061a2.056,2.056,0,0,1,1.437-2.135h0a2.283,2.283,0,0,1,.722-.1,12.506,12.506,0,0,1,7.4,3.27h0a10.653,10.653,0,0,0,4.54,3.361h0c.24.13.242.067.242.125v.8h-.774c0-.385.652-.8.774-.8v.8h-.572l-.21.137.008-.137h.2l-.21.137a22.4,22.4,0,0,0-6.932-5.238c-4.658-2.308-6.491-1.877-6.735-5h0c0-.094-.007-.188-.007-.282.348-2.839.991-6.617,3.408-7.388,1.219.047,16.955,4.048,20.249,4.03a1.746,1.746,0,0,0,.255-.014l-.039-.1c.365-.685.56-3.093.54-6.15,0-2.915-.11-6.512-.11-10.295,0-3.224.079-6.584.379-9.789,1.138-12.156,3.24-21.743,6.774-29.872l.847.368-.869-.312a26.506,26.506,0,0,0,1.253-8.18q0-.185,0-.372c-.02-5.436-5.328-7.93-5.32-7.966a.922.922,0,0,1-.466-1.179c1.382-3.459,5.366-13.21,9.085-22.125,1.86-4.457,3.652-8.7,5.022-11.851.685-1.574,1.263-2.873,1.695-3.794.681-1.05.17-1.167,1.388-1.948.924-.2,21.516-1.83,27.964-1.846.554,0,1,.012,1.354.042.388.21.493-.347,1.286.752l0,.01a1,1,0,0,1,.047.308c-.3,2.247-15.4,33.532-19.1,36.579-3.826,2.58-25.4,5.233-31.262,5.309l-.129-.009s-5.728-.805-11.548-1.732c-2.911-.463-5.844-.957-8.106-1.4-2.4-.583-3.542-.511-4.549-1.419a1.185,1.185,0,0,1-.225-.694c.81-2.651,6.39-4.927,8.274-5.388a1.234,1.234,0,0,1,.182.012h0c1.037.158,4.985,1.186,6.4,1.254h0c.056,0,.108,0,.158,0a1.045,1.045,0,0,0,.551-.1l.062.086h-.1l.037-.086.062.086h-.1a.436.436,0,0,0-.092-.2c.054-.271-2.3-.725-3.721-2-.19-.359-2.441-.674-3.414-.612-.335,0-.534.01-.535.01l-.044-.922v-.923c.082.024,4.047-.054,5.536.451,1.227.5,3.827,2.2,4.555,2.257h0l-.03.2v-.2l.03,0-.03.2v-.2c-.17,0-.17,0-.17-.083.006-.376-.338-1.336-2.123-2.028-3.54-1.359-8.446-3.808-10.6-4.577a.822.822,0,0,0-.279-.04c-1.783-.154-6.632,3.88-10.641,4.326-.03-.01-.491.271-.818,1.131a8.242,8.242,0,0,0-.554,2.965,3.629,3.629,0,0,0,.5,2.119,3.114,3.114,0,0,0,2.185.532,21.568,21.568,0,0,0,4.574-.667l.242.891-.322.865a14.636,14.636,0,0,0-4.414-.833,5.947,5.947,0,0,0-1.475.166c-1.918.269-1.1,2.369-7.994,4.261-6.748,1.838-8.716,1.857-8.859,1.86v-.923l.812.439c-.167.033-9.721,18.658-18.933,19.628h0c-.124.009-.247.014-.37.014-9.536-.847-8.5-24.566-8.8-24.606a.922.922,0,0,1,1.267-.856,50.527,50.527,0,0,0,14.917,3.24c3.317.113,6.393.321,9.049.32,5.093-.012,8.261-.764,9.351-3.677,2.219-5.26,1.786-8.77,4.59-9.905a11.972,11.972,0,0,1,2.305-.432v.923l-.41.827c-.017-.009-7.182-3.574-19.089-4.374l.062-.921v.923c-.6-.257-8.8-1-9.452-5.674a3.023,3.023,0,0,1,.2-1.059c1.323-3.464,10.09-23.373,10.012-27.314.009-.231-.043-.2,0-.231-.116-.156-.116-.137-.116-.159-.065-.028-1.126.66-2.108,2.831a47.536,47.536,0,0,0-3.154,9.652c-2.14,9.7,1.413,10.983-8.08,14.064a33.568,33.568,0,0,0-8.728,4.4,16.283,16.283,0,0,0-1.955,1.646,5.58,5.58,0,0,0-.422.469l-.057.079-.634-.378h.724c-.034.393-.1.346-.09.378l-.634-.378h-.184v-.906c.4,0,.907.653.908.906h-.908v-.169l-.466-.6c.043.015-.071-.071.466-.138v.737l-.466-.6h0c1.167-.774,10.357-4.843,13.2-4.975a1.275,1.275,0,0,1,1.359,1.146,1.188,1.188,0,0,1-.01.151c-.813,2.043-3.707,2.513-7,4.422-3.234,1.587-6.41,3.778-6.61,5.236a10.281,10.281,0,0,0-.249,2.255,12.713,12.713,0,0,0,2.151,6.767.923.923,0,0,1-.9,1.464c-.06-.007-9.157-1.661-9.979-10.869-.062-.755-.091-1.57-.091-2.436.01-9.227,3.234-24.47,5.7-32.323,2.732-8.581,8.34-21.367,14.752-26.552l.576.72-.658-.648c.056-.031,6-6.147,11.186-8.108,6.515-2.422,9.242-2.552,9.786-2.553l.094,0a.923.923,0,0,1,.879.865c.124,2.022.177,2.644.179,3.037-.038.762-.107.309-.239,1.748q-.039.406-.038.787a6.51,6.51,0,0,0,4.493,6.4,1.447,1.447,0,0,0,.285.027c1.4.1,3.718-2.2,3.735-2.191a.923.923,0,0,1,1.347,0c.006.049,3.511,3.523,5.508,3.4a1.551,1.551,0,0,0,.732-.165c2.517-1.31,3.384-3.04,5.578-6.311,2.085-3.094,8.417-14.708,8.427-14.722v0a1.262,1.262,0,0,0,.177-.622c.044-.557-.6-1.08-.576-1.11a.923.923,0,0,1,.6-1.648l.121,0c2.7.1,4.636-3.347,4.66-3.341l.816.432.28.879a13.668,13.668,0,0,1-3.842.463,20.558,20.558,0,0,1-3.2-.256c-4.863-.987-3.96-5.042-7.184-6.738a2.6,2.6,0,0,0-1.377-.422c-2.088-.165-4.885,3.577-8,6.264a5.179,5.179,0,0,1-3.361,1.346c-1.89-.051-3.183-.953-4.368-.9a3.113,3.113,0,0,0-1.528.413c-1.259.614-1.778,2.673-1.758,4.742a19.522,19.522,0,0,0,.391,3.7.923.923,0,0,1-1.763.532c-.783-2.061-1.8-3.734-1.785-7.346a37.218,37.218,0,0,1,.607-6.073c.917-4.94,3.084-12.315,8.469-13.123a9.586,9.586,0,0,1,1.028-.059c2.111,0,3.354,1,3.36,2.207A1.23,1.23,0,0,1,95,114.766a1.257,1.257,0,0,1-1.083-.7h0a1.234,1.234,0,0,1-.156-.6c.525-1.9,2.062-1.785,4.2-2.49a36.807,36.807,0,0,1,7.791-.839c6.466.054,7.484,5.237,10.919,10.271,3.538,5.249,5.728,6.531,5.705,6.582a.925.925,0,0,1,.351,1.149c-.038.13-2.513,5.575-10.025,5.948q-.275.014-.543.014c-7.382-.075-10.018-7.284-10.056-7.34l.864-.325.738.554c-.106.146-1.328,1.664-4.885,2.845-2.914.714-3.847,6.677-7.08,7.358-1.771-.06-2.105-1.8-2.108-2.8a14.674,14.674,0,0,0-.155-2.776.832.832,0,0,0-.855-.509,2.57,2.57,0,0,0-2.024,1.4,2.259,2.259,0,0,0-.29,1.237c-.03,1.937,1.352,4.56,1.431,6.2a1.469,1.469,0,0,1-.395,1.067l-.172.135a10.541,10.541,0,0,0-4.56,7.813q-.036.472-.036.932c.032,4.276,2.25,7.723,7.014,9.318a11.272,11.272,0,0,0,3.467.626c2.617-.052,3.535-1.2,3.578-2.332l.923.022-.9.186a.956.956,0,0,1-.02-.2c.124-1,.931-1.443,2.893-1.6,1.593-.047,4.321-2.3,5-3.512a1.084,1.084,0,0,1,.922-.5c2.144.463,6.434,4.8,7.246,7.937a16.392,16.392,0,0,1,.15,2.268c-.008,4.424-1.506,9.559-3.425,16.442-1.607,5.728-3.212,11.7-3.2,15.911a11.393,11.393,0,0,0,.263,2.608,5.393,5.393,0,0,0,.423,1.293l-.5.287v-.461c.456.015.5.172.5.175l-.5.287v.395l-.453-.723a.861.861,0,0,1,.453-.133v.856l-.453-.723.49.782.311.869s-1.794.641-3.6,1.293c-.905.326-1.814.655-2.5.907-.345.126-.634.233-.838.309l-.234.09-.145-.367.213.321-.068.046-.145-.367.213.321.006,0-.514-.762h.919a.925.925,0,0,1-.4.762l-.514-.762h.014l.333-.848c0,.119.316-.19.571.848h-.9l.333-.848c0,.041,1.277.182,2.432.309.618.076,1.228.152,1.693.217.233.033.428.062.583.09.079.014.145.026.225.047a1.219,1.219,0,0,1,.172.059c.026.1.373-.087.568.857-.123.841-.6.83-.64.882h0c-.3.1-5.928,1.831-5.938,1.834a.923.923,0,0,1-.981-1.473c.145-.173,1.405-1.56,5.829-2.944a14.416,14.416,0,0,1,3.754-.844c.41,0,1.336.251,1.35,1.09a1,1,0,0,1-.122.487l-.811-.44.653-.652c2.964,3.017,9.726,5.783,13.907,6.374,2.538.29,3.757,2.119,3.675,3.717-.234,1.875-.6,3.455-2.361,3.907a1.158,1.158,0,0,1-1.04-.693h0a1.787,1.787,0,0,1-.151-.735A4.813,4.813,0,0,1,126.939,209a3.946,3.946,0,0,1,1.112.16c3.554,1.1,7.636.947,9.577,2.345a1.931,1.931,0,0,1,.786,1.463c-.105,1.29-1.2,1.812-2.863,2.148a20.619,20.619,0,0,1-3.794.346c-1.739-.179-2.929.214-3.946-1.175h0c-.015-.322-.3.178-.777-1.258a1.16,1.16,0,0,1,.952-1.083h0a1.128,1.128,0,0,1,.333-.049c2.134.487,5.364,4.373,6.277,6.359a2.9,2.9,0,0,1,.123.8,2.016,2.016,0,0,1-2.024,1.921,3.194,3.194,0,0,1-1.1-.207c-1.685-.809-2.207-2.235-3.6-2.206a19.624,19.624,0,0,1-4.229-.673.923.923,0,0,1,.41-1.8c.072.042,4.172.648,5.948,1.84.473.379,2.921,1.751,3.765,3.818a8.925,8.925,0,0,1,.535,3.172,12.011,12.011,0,0,1-.347,2.883l-.89-.242-.758-.527c.156-.158,3.811-9.029,7.655-17.583,4.1-8.725,7.683-17.061,10.559-18.232,2.816-.741,17.342-2.038,29.363-8l.41.826-.473-.792c9.03-5.4,12.163-12.011,13.566-17.383,1.686-5.329.244-9.479,3.594-10.422h0l.139,0c4.225,0,54.569,3.533,66.082,3.531,1.19.023,1.934-.092,1.946-.067.521-.056,1.269-1.91,1.206-3.776a6.1,6.1,0,0,0-.618-2.938c-.89-.527-57.848-2.951-65.176-3.7-3.786-.35-5.765-1.824-5.786-3.931.057-1.947,1.526-3.531,3-4.615,1.033-.611,2.4-.568,4.748-.62,10.228,0,35.3,2.647,45.5,2.644,1.127,0,2.068-.033,2.758-.1,8.215-.813,8.062-7.31,8.132-7.316l.923.011.891.237-.74,2.785-.891-.237-.461-.8c.022-.011,3.351-1.936,3.7-2.115h0a.991.991,0,0,1,.443-.1,6.366,6.366,0,0,1,2.265,1.1c.39.242.771.482,1.056.655.142.086.262.156.335.2l-.249.46v-.489c.289-.046.233.058.249.029l-.249.46v.348l-.859-.169c.044.008-.081-.494.859-.668v.837l-.859-.169,0-.032a19.668,19.668,0,0,0-.361-2.684v0a.993.993,0,0,1-.053-.325c.336-1.624,2.964-3.992,3.024-4.241l.688.615-.215.9s-2.175-.522-3.229-.786c-2.052-.855-2.837-4.129-3.027-4.209l.858-.341.834.395a34.2,34.2,0,0,1-2.009,3.826c-1.286.807-3.9.739-4.438.879v-.917h.917c0,.241-.5.916-.917.917v-.917h.108l.7-.427c0,.055.053-.067.11.427h-.81l.7-.427c.106.2,2.113,2.558,2.113,2.562a.923.923,0,0,1-1.067,1.448c0-.014-4.609-1.962-8.027-1.944a4.514,4.514,0,0,0-2.674.661,9.133,9.133,0,0,0-2.553,2.621,3.188,3.188,0,0,0-.3.727H245l.828-.029v.029H245l.828-.029-.922.032-.375-.843,3.133-1.393.835.044,3.481,2-.46.8-.921.058c0-.01-.13-2.033-.13-3.207a3.348,3.348,0,0,1,.09-.973v0a22.969,22.969,0,0,1,2.877-3.451l.628.628h-.885a.9.9,0,0,1,.258-.628l.628.628h-.031l-.437.751a.838.838,0,0,1-.417-.751h.854l-.437.751-.009.016c-.719-.168-3.212-.341-3.215-.343l-.77-.52a30.333,30.333,0,0,1-1.788-4.186h.917v.908a1.059,1.059,0,0,1-.917-.908h.917v.039l.744.481c-.142,0,0,.126-.744.388v-.869l.744.481c-.218.175-1.038,2.836-2.475,3.707a23.833,23.833,0,0,1-4.422.866l-.108-.917.688-.615,2.524,2.828a.923.923,0,0,1-1.06,1.459,23.437,23.437,0,0,0-7.966-1.842,7.869,7.869,0,0,0-2.467.35c-3.907,1.327-3.827,3.749-3.9,3.749l-.921-.055-.314-.868,3.611-1.306.73.045,3.612,1.828-.417.823-.907.167c-.006-.076-.687-3.632-.712-4.214.393-1.333.983-1.329,1.837-2.382.792-.792,1.578-1.545,1.581-1.548l.639.666-.106.917-3.394-.391-.706-.477-1.178-2.175-1.067,2.035-.817.494h-2.186l1.254,1.87a.923.923,0,0,1-1.117,1.368,24.562,24.562,0,0,0-7.809-1.732,6.449,6.449,0,0,0-2.716.5c-3.551,1.7-3.375,3.566-3.476,3.565l-.922-.048-.33-.862,3.873-1.48.785.059c.091.073,2.728,1.5,3.244,1.935l.018.019-.665.627v-.913a.915.915,0,0,1,.665.286l-.665.627v-.015l-.879-.233c.074.007-.113-.455.879-.664v.9l-.879-.233-.014-.057c0-.386-.042-1.21-.09-1.921-.023-.357-.049-.692-.069-.938,0-.184-.047-.22,0-.234l.876-.293-.856.346a.913.913,0,0,1-.068-.349c.322-1.142.388-.657.725-1.2.883-.944,2.592-2.628,2.6-2.633l.648.657-.178.906c-.03-.008-2.817-.551-3.394-.718-1.472-.849-2.614-3.866-2.852-4.011l.811-.441.854.35-1.48,3.612-.807.572c0-.009-4.213.238-4.217.234h0l-.226-.882h.912a.973.973,0,0,1-.685.882l-.226-.882h.361l.485-.349c-.044.033-.028.021.065.349h-.551l.485-.349c.4.56,2.354,2.714,2.356,2.717a.923.923,0,0,1-.968,1.5,32.038,32.038,0,0,0-8.042-1.488,6.2,6.2,0,0,0-2.246.334,5.123,5.123,0,0,0-2.585,2.189c-.722.757.025,1.333-1.712,2.014l-.1,0h0a1.023,1.023,0,0,1-.892-.951c.384-1.253.559-.742.839-1.112.409-.256.967-.557,1.443-.815.237-.127.452-.243.607-.328l.087-.02a.942.942,0,0,1,.67-.276c1.071.227,1.232.667,2.219,1.221.4.262.8.521,1.127.7a4.06,4.06,0,0,0,.389.2l-.01.024v0l.01-.022-.01.024v.722l-.652-.327a.774.774,0,0,1,.652-.4v.724l-.652-.327.221.111h-.266c.024,0,0,0,.046-.111l.221.111h-.266a27.427,27.427,0,0,0-.737-2.97l.912-.14-.911.149a1.069,1.069,0,0,1-.014-.174c.421-1.843,3.167-3.775,3.547-4.282l.547.73h-.911a.917.917,0,0,1,.364-.73l.546.73h-.039l-.309.837c.018-.111-.3.207-.562-.837h.871l-.309.837c-.033-.05-3.451-.41-3.944-.487h0c-1.366-.657-1.16-1.4-1.818-2.391-.223-.464-.434-.919-.593-1.243-.079-.161-.146-.291-.183-.353l0-.009.676-.532v.844c-.707-.11-.6-.311-.676-.312l.676-.532V122.4l.213.884a.889.889,0,0,1-.213.026v-.91l.213.884.009,0-.2-.8.668.506c-.055.018.015.118-.466.3l-.2-.8.668.506c-.17.167-1.074,2.588-1.562,3.231-1.015.649-3.5.944-4.169,1.166l-.17-.85h.864c.062.312-.427.849-.694.85l-.17-.85h.331l.463-.328c-.026.019.029,0,.071.328h-.533l.463-.328a12.477,12.477,0,0,0,1.16,1.189c.588.637.745.508,1.216,1.315l0,.008a.943.943,0,0,1,.048.314,15.192,15.192,0,0,1-1.056,4.377c-1.162,1.393-3.829,1.621-3.947,1.76h0a14.221,14.221,0,0,1-3.061.319,20.41,20.41,0,0,1-10.354-3.044c-3.174-2-7.158-1.987-7.274-6.912v-.068a4.054,4.054,0,0,1,4.261-4.105c.1,0,.209,0,.313.008,1.763,0,3.781,1.553,3.691,4.612q0,.322-.025.668c-.846,6.09-8.151,3.519-10.664,5.711a2.971,2.971,0,0,0-1.1,2.567,7.922,7.922,0,0,0,6.621,7.425,14.244,14.244,0,0,0,2.064.156c6.192-.05,9.551-4.383,9.633-11.363a22.328,22.328,0,0,0-.213-3.014c-.591-4.564-5.336-8.3-10.293-8.284-3.167.014-6.395,1.45-8.854,5.223-2.353,3.618-3.623,9.323-3.616,15.363-.027,10.062,3.52,20.971,10.238,25.081,5.9,3.739,26.252,6.349,46.086,7.033,4.777.174,9.689.291,14.446.291,11.169.009,21.539-.673,27.09-2.708,7.908-2.717,10.529-15.837,10.473-27.745a83.007,83.007,0,0,0-1.486-16.1c-2.241-10.055-6.486-13.573-35.842-14.3-14.66-.292-30.4-1.582-43.454-1.581-13.056-.05-23.415,1.427-27.014,5.837-4.523,5.261-6.694,18.659-6.658,29.889-.04,7.957,1.13,15.025,2.69,17.006,3.718,5.524,14.629,4.181,15.757,11.956q.087.963.086,1.883c0,4.97-1.835,9.058-4.328,14.046l-.01.021s-14.211,26.682-16.136,30.182a71.632,71.632,0,0,1-4.046,6.462l-.749-.538.732-.562c3.051,3.964,6.054,5.313,10.567,18.257,4.535,12.884,4.866,13.021,12.022,25.163s13.967,18.7,14.745,20.85v0a1.135,1.135,0,0,1,.045.317c-.6,2.262-4.52,3.846-8.867,6.527-4.316,2.4-8.574,4.559-9.236,4.811l-.13-.358.444.115c-.052-.013.032.089-.314.243l-.13-.358.444.115a2.618,2.618,0,0,0-.048.586c-.006,1.71.733,5.1.821,6.1h0c0,.068.007.135.007.2-.014.782-.234,1.6-.227,2.386a2.062,2.062,0,0,0,1.023,2.012h0a12.985,12.985,0,0,0,5.819,1.306,5.792,5.792,0,0,0,3.1-.656h0a3.253,3.253,0,0,1,1.944-.679c2.09.078,4,1.55,11.984,2.989a34.909,34.909,0,0,0,6.016.677c4.2-.236,3.551-1,4.01-2.888h0a2.475,2.475,0,0,0,.019-.3c.329-3.5-9.082-8.386-13.75-11.633-4.56-3.454-3.846-6.016-6.576-7.41a1.341,1.341,0,0,0-.662-.133c-3.326-.124-11.72,6.234-15.513,6.395a2.59,2.59,0,0,1-.663-.081c-3.877-1.32-5.329-7.394-12.006-16.467-6.448-8.954-15.868-32.5-17.78-35.071a2.606,2.606,0,0,0-2.258-.9,13.3,13.3,0,0,0-4.6,1.184.923.923,0,0,1-.847-1.64,16.865,16.865,0,0,1,6.941-1.979,5.566,5.566,0,0,1,4.181,1.6c3.391,3.7,8.028,18.32,15.183,29.017,7.238,10.942,15.233,24.149,15.7,27.389h0c.325,2.718.609,5.515,3.673,6.1a124.059,124.059,0,0,1,13.956,2.559c9.027,2.139,16.087,4.291,21.389,4.278.2,0,.4,0,.592-.009,1.913-.059,8.648-.078,16.821-.078,16.335,0,38.332.077,38.333.077l0,.923h-.923V236.356a.922.922,0,0,1,.922-.923c.05.043,48.981-.164,50.543-1l.175.4-.394-.226a.47.47,0,0,1,.218-.175l.175.4-.394-.226a3.78,3.78,0,0,0,.135-1.286c.018-6.412-5.005-27.835-5.13-34.194-.009-.554-.03-1.22-.03-1.957-.062-4.169.792-11.105,8.83-13.057a10.067,10.067,0,0,1,2.4-.3c8.338.175,12.671,10.436,15.962,18.133,1.823,4.526,9.783,13.824,10.429,14.215l-.134.185.079-.228.054.043-.134.185.079-.228c1.2.43,9.79,2.1,17.934,3.655,8.378,1.663,15.66,2.847,16.742,3.451h0c.9,1.037.691,2.081.811,3.6a7.31,7.31,0,0,1-.6,3.4h0c-1.132,1.037-2.048.718-4.545,1.2a313.88,313.88,0,0,1-31.813,1.939c-5.09-.031-8.865-.186-10.61-1.034-5.257-2.867-9.907-13.749-13.7-18.16-6.855-8.136-9.989-16.093-10-22.6a16.222,16.222,0,0,1,1.263-6.5c3.119-7.128,10.159-8.888,14.383-9.357,5.944-.665,14.884-2.7,14.9-2.7a.922.922,0,0,1,1.079,1.2,13.193,13.193,0,0,0-.544,3.915,12.078,12.078,0,0,0,3.578,8.81c1.568,1.622,6.983,4.251,10.349,4.2,1.9-.089,2.765-.509,3.014-2.146a8.987,8.987,0,0,0,.064-1.042c.06-4.419-3.9-5.906-9.227-8.551a15.2,15.2,0,0,1-8.24-13.29q0-.6.054-1.205l.919.082-.138.912c-.169,0-4.172-.756-5.844-6.112a13.2,13.2,0,0,1-.673-3.925c0-2.585,1.147-4.535,3.087-4.6a2.467,2.467,0,0,1,.381.03c2.8.816,4.021,5.985,5.146,6.571l-.281.365V157.8c.249.009.277.07.281.066l-.281.365v.217l-.6-.309a.72.72,0,0,1,.6-.338v.647l-.6-.309a5.611,5.611,0,0,0,.069-1.518v-.332c.061-1.609-.136-3.579,1.125-4.918,1.686-1.567,2.448-1.792,2.735-1.848l.151.911-.922.052c0-.012-.039-.7-.039-1.713.146-2.51-.128-6.745,2.319-8.3a3.335,3.335,0,0,1,1.466-.3c3.154.066,8.082,2.654,12.047,2.62h.1c4.563-.015,5.96-1.21,5.959-1.846a1.237,1.237,0,0,0-.03-.258c-.277-1.5-3.319-6-9.673-7.85a21.992,21.992,0,0,0-6.247-.859c-4.259-.02-8.132,1.131-9.357,1.978-1.894,1.313-6.013,3.817-6.065,12.11a29.369,29.369,0,0,0,.4,4.644l-.911.146-.912-.142c.123-.066,1.566-11.894,7.716-14.572l.782.049a32.484,32.484,0,0,0,13.17,3.485c3.7.107,6.043.107,7.5.107,1.616.17,1.627-.378,2.826.476.405.685,3.17,7.442,3.257,12.057q0,.237-.012.468c-.214,3.955-1.094,7.754-1.082,9.659,0,.1,0,.2.007.287h0q.008.171.009.353c-.012,2.4-1.049,6.652-2.375,10.867a.923.923,0,0,1-1.76-.555l.1-.327.88.276.86.334c-2.4,6.053-3.992,8.929-6.931,9.176a.923.923,0,0,1-.4-1.77,1.134,1.134,0,0,1,.458-.089c2.088.206,14.5,5.249,16.44,13.394a70.616,70.616,0,0,1,1.39,12.82c-.11,3.017-.076,5.191-1.612,6.362a21.865,21.865,0,0,1-8.792,2.452,5.658,5.658,0,0,1-1.671-.218c-1.8-.57-2.906-1.419-2.971-2.748a1.891,1.891,0,0,1,.632-1.389h0c1.544-1.088,5.234-.85,6.874-1.891,1.6-.857,2.443-2.033,3.963-2.2a1.465,1.465,0,0,1,.992.383c1.062,1.167,2.1,4.765,2.191,8.573,0,.212,0,.423-.014.634-.067,1.486-.307,3.548-.306,5.7-.01,3.375.623,6.781,2.983,8.437,1.083,1,12.99,1.727,25.955,1.65,18.726.07,41.588-1.154,42.239-1.764.774-.13,1.518-4.705,1.387-8.973,0-2.713-.117-5.384-.117-7.134,0-2,.142-7.648.142-13.625.041-7.384-.314-15.612-1.112-16.953l.125-.065-.086.151-.039-.086.125-.065-.086.151c-1.715-1.134-16.208-1.718-30.913-1.662-17.767-.034-37.037.666-37.075.723l-.268-.7.744.237c-.048-.01.1.137-.477.459l-.268-.7.744.237c-.25.6-.408,8.709-.386,17.5,0,9.682.106,20.629.106,25.484,0,1.494,0,2.275-.045,2.653v0l-.449-.072h.455l-.005.072-.449-.072h.183l.232-.172a.418.418,0,0,1,.039.172h-.271l.232-.172c.086.349,2.887,1.352,4.959,1.269a7.446,7.446,0,0,0,1.112-.077c3.026-.45,87.164-.8,93.474-1.579,3.47-.456,4.478-1.785,4.452-2.786.018-.836-.685-2.018-2.3-2.946a3.183,3.183,0,0,0-1.618-.366c-4.106-.09-11.6,4.991-17.038,5.073-5.472-.239-10.973-1.891-11.52-5.073a1.835,1.835,0,0,1,.417-1.152c2.438-2.455,8.368-.883,12.248-2.305a42.125,42.125,0,0,1,12.235-2.116,18.77,18.77,0,0,1,4.983.6c2.893.81,8.175,1.218,12.945,1.214a53.154,53.154,0,0,0,8.2-.518,23.788,23.788,0,0,0,4.513-1.1,2.494,2.494,0,0,0,.7-.383l.118.129h-.13l.012-.129.118.129h.154l-.274.075-.009-.075h.284l-.274.075.359-.1-.293.285c.033-.033.013-.013-.066-.186l.359-.1-.293.285c-1.2-1.352-11.52-8.378-11.62-16.529a8.782,8.782,0,0,1,.312-2.334,53.423,53.423,0,0,0,2.137-13.178c.03-2.995-.65-5.1-1.561-5.655-.842-.624-3.17-1.116-5.656-1.1-4-.081-8.469,1.289-9.013,2.933-.727,1.528-1.363,8.666-2.174,15.446-.951,6.9-1.68,13.4-4.312,15.449a7.062,7.062,0,0,1-3.854,1.408c-3.258-.087-5.433-3.194-7.151-9.894-2.035-8.047-4.353-12.131-4.418-15.062a3.42,3.42,0,0,1,.334-1.547c2.163-3.068,4.33-.218,9.732-5.214a.923.923,0,0,1,1.467,1.047,11.484,11.484,0,0,1-8.875,6.209,12.726,12.726,0,0,1-1.9.151c-5.6-.023-8.4-4.363-11.832-12.369a33.922,33.922,0,0,1-3.092-12.9c.041-2.634.46-4.576,1.865-5.576,1.823-1.079,4.008-4.247,7.2-4.442h.075c3.3.167,10.054,5.581,14.049,6.1,4.318.583,6.446,3.259,6.407,5.941a5.611,5.611,0,0,1-.04.668,8.774,8.774,0,0,0-.06,1.055c-.023,2.188.781,4.932,2.5,5.747a15.756,15.756,0,0,0,5.629.728c3.3.107,7.148-.73,7.156-1.008l.014-.011c.3-.331-2.7-2.64-4.165-3.959-1.595-1.669-4.694-6.366-8.2-12.594-3.482-6.2-6.873-9.615-9.355-11.474a12.511,12.511,0,0,0-3.944-2.145.923.923,0,0,1-.257-1.708c5.135-2.914,6.479-5.618,6.513-8.739a19.189,19.189,0,0,0-1.21-5.882c-.826-3.993-8.41-1.509-13.69-7.611-2.528-3.267-3.774-12.028-3.822-21.733.028-10.553,1.606-21.922,5.963-27.574,5.742-7.1,21.894-8.144,40.64-8.222,10.065,0,20.853.383,31.063.543,30.27.324,35.924,5.279,38.594,16.182a79.291,79.291,0,0,1,2.072,18.181c-.036,10.86-2.223,22.611-10.888,26.259-8.482,3.433-26.011,4.1-42.105,4.152h-.787c-19.8-.034-39.553-1.638-46.452-5.495-7.112-4.077-10.946-13.023-10.96-21.4,0-6.269,2.18-12.344,7.091-15.76,1.389-.784,4.219-1.3,4.069-1.524a22.72,22.72,0,0,0,.985-4.562h.792l-.745.258a.66.66,0,0,1-.047-.258h.792l-.745.258,0,.006.7-.248-.552.512c0-.03,0,.073-.15-.265l.7-.248-.552.512c-.326-.567-2.847-2.014-3.292-3.728a1.043,1.043,0,0,1,.791-.973c.254-.054,1.414-.325,2.5-.6.546-.137,1.079-.274,1.475-.386.2-.055.361-.1.463-.139l.089-.032.278.657-.505-.491c.225-.2.219-.148.228-.166l.278.657-.505-.491h0l.1.1-.156-.073.054-.026.1.1-.156-.073c.183-.387.59-1.365.964-2.233.189-.437.372-.85.528-1.175.343-.393-.137-.392.9-1l-.007,0a.938.938,0,0,1,.246-.033c1.536.632.738.712,1.27,1.232.345.678.8,1.657,1.229,2.463a11.356,11.356,0,0,0,.567.987,1.988,1.988,0,0,0,.16.214l-.4.377.085-.51c.326.079.3.143.311.133l-.4.377.085-.51c.2.036,1.6.163,2.851.289.637.064,1.256.13,1.733.194.239.032.44.063.612.1a2.045,2.045,0,0,1,.274.074c.042.133.4-.166.666.9a.944.944,0,0,1-.365.742h0c-.007,0-1.066.992-2,1.983-.482.506-.954,1.031-1.286,1.453a5.208,5.208,0,0,0-.367.516l-.076-.046h.04l.036.046-.076-.046h-.669l.7-.118.01.118h-.709l.7-.118h0a23.418,23.418,0,0,1,1.034,4.19A1.352,1.352,0,0,1,491.2,84.65l-.012-.923.036.922h-.042a8.159,8.159,0,0,1-3.119-1.5c-.535-.342-1.049-.68-1.438-.925-.193-.122-.357-.221-.461-.278l-.09-.046.258-.6v.648c-.249-.013-.248-.049-.258-.044l.258-.6v-.244l.637.622a.885.885,0,0,1-.637.271v-.893l.637.622a17.745,17.745,0,0,1-2,1.182c-.418.236-.828.476-1.112.659-.14.09-.252.17-.295.205l-.446-.546h.642c-.071.545-.242.488-.2.546l-.446-.546h-.21l.068-.879a.959.959,0,0,1,.784.879h-.852l.068-.879h.012l-.071.787V82.3l.071,0-.071.787v-.18l-.536-.377a.673.673,0,0,1,.536-.233v.61l-.536-.377A9.771,9.771,0,0,1,487.6,76.95a10.319,10.319,0,0,1,3.941-.64,44.1,44.1,0,0,1,10.847,1.883l-.274.881-.674.631s-.837-.893-1.676-1.824c-.9-1.181-1.549-1.352-1.9-2.633a.982.982,0,0,1,.7-.907h0c.577-.119,5.772-.427,5.858-.442l.06.921-.859-.338,1.852-4.7a.924.924,0,0,1,1.664-.114s.613,1.092,1.293,2.2c.339.552.7,1.107.986,1.513a5.746,5.746,0,0,0,.358.461l.07.073-.365.437.153-.538a.547.547,0,0,1,.212.1l-.365.437.153-.538c.423.126,4.2.821,4.205.823a.923.923,0,0,1,.49,1.556s-.969.981-1.935,1.987c-.483.5-.965,1.013-1.32,1.4-.177.194-.322.359-.411.467-.044.053-.074.094-.077.1l-.638-.443h.759c-.071.544-.136.394-.121.443l-.638-.443h-.152l.854-.315a.91.91,0,0,1,.057.315h-.911l.854-.315.006.018a43.892,43.892,0,0,1,.382,4.775,3.188,3.188,0,0,1-.013.325,1.227,1.227,0,0,1-.046.237c-.059.039-.009.531-.9.675a.93.93,0,0,1-.655-.268l0,0-.055-.017c-.8-.485-3.715-2.089-3.719-2.091l.445-.809.341.858-4.987,1.982a.923.923,0,0,1-1.263-.893c-.023-.216.322-3.935,5.623-6.5a10.612,10.612,0,0,1,4.631-.9,34.256,34.256,0,0,1,10.72,2.257l-.34.858-.76.525-2.929-4.241a.923.923,0,0,1,.747-1.448l4.51-.06,2.107-4.153a.922.922,0,0,1,1.628-.032l2.42,4.332,3.922.4a.923.923,0,0,1,.554,1.576s-.994.979-1.985,2c-.5.508-.99,1.027-1.349,1.427-.179.2-.326.371-.412.481a1.135,1.135,0,0,0-.068.094l-.616-.379h.708c-.034.393-.1.354-.092.379l-.616-.379h-.215l.923-.012c-.026.016.959,5.053.953,5.058a.923.923,0,0,1-1.311,1.008L524.6,84.339l-4.278,1.612a.924.924,0,0,1-1.248-.907c-.031-.172.377-4.747,6.4-6.819a12.463,12.463,0,0,1,4.085-.615,32.783,32.783,0,0,1,10.966,2.415l-.36.85-.681.624-3.315-3.617a.923.923,0,0,1,.559-1.539,33.94,33.94,0,0,0,5.051-1,7.25,7.25,0,0,0,1.268-2c.257-.509.49-1.008.669-1.39.091-.191.166-.351.233-.482.035-.066.064-.123.109-.2.178-.047-.224-.205.82-.477a1.074,1.074,0,0,1,.931.928v0h-.025l.058-.023-.033.023h-.025l.058-.023c.395,1,2.13,4.489,2.131,4.493l-.826.412.049-.922c.006,0,1.2.064,2.409.17.606.054,1.212.116,1.7.191a5.49,5.49,0,0,1,.656.136c.132.175.546-.182.867,1a.972.972,0,0,1-.277.677c-.131.134-.95,1.032-1.718,1.92-.386.446-.767.9-1.051,1.256-.142.178-.26.335-.337.446l-.057.059c-.019,0-.011.109,0,.388,0,1.308.22,4.211.22,4.215a.923.923,0,0,1-1.37.877l-4.13-2.3-3.6,1.661a.924.924,0,0,1-1.307-.784l0-.064c-.011-.481.285-2.886,4.457-6.072a8,8,0,0,1,4.9-1.341c5.075.016,11.013,2.528,11.069,2.54l-.354.852-.693.61s-.735-.834-1.471-1.693c-.805-1.126-1.32-1.165-1.685-2.419,0-.272.511-.929.918-.93,0,.008,1.159-.124,2.26-.29.569-.084,1.142-.178,1.571-.268.213-.044.393-.088.5-.121l.084.274-.175-.171c.073-.162.1-.084.091-.1l.084.274-.175-.171c.071.028,2.109-4.392,2.125-4.39a.922.922,0,0,1,1.692.032c-.017.087,2.136,4.3,2.52,4.143,1.347.318,4.168.955,4.172.956a.923.923,0,0,1,.493,1.505s-.878,1.01-1.751,2.095c-.436.541-.871,1.1-1.182,1.549-.155.221-.28.416-.351.544l-.1-.055h.063l.036.055-.1-.055h-.737l.754-.265a.813.813,0,0,1,.046.265h-.8l.754-.265v0a23.063,23.063,0,0,1,.631,4.192,2.094,2.094,0,0,1-.036.429c-.049.076-.02.668-.946.823h-.014c-1.027-.2-1.41-.712-2.6-1.346-.5-.3-1-.6-1.4-.813-.2-.107-.367-.193-.479-.241l.038-.086v.059l-.038.026.038-.086v-.772l.381.736a.824.824,0,0,1-.381.1v-.831l.381.736c-.245.124-4.641,2.738-4.646,2.74a.923.923,0,0,1-1.367-1.018l.909-3.617a.923.923,0,0,1,1.818.233c.008.173-.352,8.777-12.331,10.209a69.872,69.872,0,0,1-7.22.247c-12.276,0-35.128-.974-48.465-.973a53.187,53.187,0,0,0-9.818.5c-1.162.859-2.152,2.315-2.1,3.14-.015.686.508,1.678,4.214,1.988,7.5.531,82.506,1.2,84.775,1.982,1.67,1.006,1.611,3.061,1.756,5.393-.1,2.591-.3,5.377-2.3,6.512-1.067.378-3.845.335-8.7.374-17.824,0-58.405-1.168-65.654-1.167-.475,0-.814.006-.938.014l-.018-.295.2.213a.331.331,0,0,1-.182.082l-.018-.295.2.213c-.049,0-.179.385-.141,1.307-.006,2.164.608,6.13.61,10.482.026,6.948-1.633,15.307-10.288,19.219l-.108.041a27.136,27.136,0,0,1-7.974,1.318,12.563,12.563,0,0,1-5.309-.924l.415-.824-.152.911a13.338,13.338,0,0,0-2.168-.16c-5.443-.037-13.51,2.618-14,8.269a40.583,40.583,0,0,0-.22,4.556c0,3.963.361,8.315.362,12.25a27.016,27.016,0,0,1-.762,7.244,33.891,33.891,0,0,1-1.6,4.854,1.989,1.989,0,0,1-1.935,1.233h-.162c-.071,0-.14,0-.211,0-.758.029-14.761.189-28.532.189-12.582-.015-24.609-.1-26.794-.65a3.5,3.5,0,0,1-3.052-3.455,26.337,26.337,0,0,1,1-4.663,13.275,13.275,0,0,0,.3-2.717c-.044-2.331-.668-3.718-2.025-3.741h-.024c-.789-.132-4.2,2.185-6.955,4.569-3.106,2.436-4.86,4.619-6.425,5a.98.98,0,0,1-.44-.1h0a1.013,1.013,0,0,1-.551-.919c.207-1.8,4.713-8.534,4.926-16.15q.015-.547.014-1.086c0-6.941-1.686-12.355-1.721-14.345a1.863,1.863,0,0,1,.1-.652,36.541,36.541,0,0,1,6.842-10.183c3.474-3.168,8.092-4.443,9.645-6.833,1.766-2.287,5.085-21.093,13.631-25.952a24.58,24.58,0,0,1,11.7-2.716c5.971.03,11.7,1.712,14.3,5.12,4,5.455,4.892,16.781,6.779,21.482,1.941,4.812,3.533,5.031,4.6,6.328a1.463,1.463,0,0,1,.3.893c-.3,1.969-2.4,3.276-4.455,3.478a2.674,2.674,0,0,1-.591-.064c-1.869-.545-7.612-2.569-8.235-6.675-.179-3.032-2.016-16.124-7.5-19.154a9.335,9.335,0,0,0-4.778-1.216c-4.694-.063-9.743,3.021-10.752,5.047a24.716,24.716,0,0,0-2.39,10.607,16.563,16.563,0,0,0,.432,3.931c.783,3.181,1.229,4.735,1.235,6.478a14.382,14.382,0,0,1-.424,3.181c-.946,3.837-5.722,9.869-10.87,11.016a3.659,3.659,0,0,1-.715.07c-5.2-.421-9.934-8.949-10.212-11.905a1.432,1.432,0,0,1,.532-1.2,1.357,1.357,0,0,1,.806-.266c2.71.636,4.658,6.017,8.192,6.378,4.083.8,9.528-.992,11.228,2.468.669,2.8-.257,15.1,5.232,17.711a14.462,14.462,0,0,0,6.5,1.466c5.121-.014,10.313-2.388,12.125-7.71,3-8.37.359-16.781,2.894-19.448.944-.636,2.118-.655,3.718-.691a69.44,69.44,0,0,1,13.621,1.771c4.167,1.413,6.029,8.349,9.27,9.2a10.682,10.682,0,0,0,3.221.349c1.112,0,2.363-.053,3.69-.053,3.364,0,7.287.341,10.722,2.961,6.314,4.99,6.145,13.335,12.983,18.231,6.821,5.115,18.04,5.943,23.455,15.233,4.585,8.139,22.428,29.4,22.573,39.562a6.18,6.18,0,0,1-.389,2.264c-1.6,4.1-5.565,5.245-9.972,5.209-5.386-.008-11.982-1.5-18.1-1.724-4.254-.161-9.186-.279-13.791-.279-7.577-.084-14.752.519-15.241,1.15-.6.466-.771.873-.747.969-.025.152.949,1.493,5.614,2.347,3.565.72,13.22,1.174,22.424,1.169,7.987,0,15.77-.342,18.977-1.058,5.7-1.22,9.4-4.565,12.129-4.726a2.013,2.013,0,0,1,1.918,1.3,5.865,5.865,0,0,1,.36,2.225c-.009,2.274-.7,5.063-.685,6.189,0,.2.031.258.015.266l-.542.231v-.564a.689.689,0,0,1,.542.333l-.542.231v-.564c1.31,0,39.311.429,39.317.429a.921.921,0,0,1,.912.923v78.559H711.735V162.471a.922.922,0,0,1,.923-.923h17.8V81.911l.392-.755,25.5-17.93a.923.923,0,0,1,1.454.755V317.556a.923.923,0,0,1-.923.923H734.972a.922.922,0,0,1-.923-.923V22.94l.474-.806L773.172.617,773.621.5h57.26a.924.924,0,0,1,.923.923V23.6a.923.923,0,0,1-.923.923h-65.9V36.759h63.642a.924.924,0,0,1,.923.923V73.074a.923.923,0,0,1-.923.923h-62.58V89.886h62.048a.924.924,0,0,1,.923.923v49.409a.923.923,0,0,1-.923.923H763.653v18.608h64.705a.924.924,0,0,1,.923.923v60.3a.923.923,0,0,1-.923.923H764.185v21.264h64.439a.924.924,0,0,1,.923.923v31.346a.923.923,0,0,1-.923.923H767.107v18.608h63.775a.923.923,0,0,1,.923.923v19.936h7.717V65.175a.923.923,0,0,1,.923-.923h57.007a.924.924,0,0,1,.923.923v41.314h30.954a.924.924,0,0,1,.923.923v27.139a.923.923,0,0,1-.923.923H897.274a.922.922,0,0,1-.923-.923V124.28a.922.922,0,0,1,.923-.923h35.772a.924.924,0,0,1,.923.923v48.877a.923.923,0,0,1-.923.923H898.514a.922.922,0,0,1-.923-.923v-13.99a.922.922,0,0,1,.923-.923h31.345a.924.924,0,0,1,.923.923v54.367a.923.923,0,0,1-.923.923H900.284a.922.922,0,0,1-.923-.923V198.127a.922.922,0,0,1,.923-.923h32.762a.924.924,0,0,1,.923.923v48.346a.923.923,0,0,1-.923.923H898.691a.922.922,0,0,1-.923-.923v-12.75a.922.922,0,0,1,.923-.923h29.751a.925.925,0,0,1,.923.923v83.833l-.014.157-.009.054-.909-.157v-.923h203.71V290.562H941.6v22.048h1.96V231.075l.384-.749,60.673-43.573.538-.174h6.091a.924.924,0,0,1,.923.923v39.565l33.23-26.141-9.131-66.439H993.549v7.642h41.086l-3.651-31.36h-12.941l-.58-.2c-.032-.087-4.177-3.211-4.267-7.454.006-3.673.808-4.532,1.284-4.842l.459.8-.863.328a19.136,19.136,0,0,1-1.162-5.865,6,6,0,0,1,.921-3.49c1.723-2.42,2.857-2.834,3.525-2.85a1.168,1.168,0,0,1,.207.018l-.168.907-.921.065c0-.018-.018-.277-.018-.711.025-1.852.246-7.025,3.937-10.031a6.156,6.156,0,0,1,3.861-1.5,6.226,6.226,0,0,1,4.521,2.226l-.721.576-.888.251a9.883,9.883,0,0,1-.294-2.473,8.608,8.608,0,0,1,3.443-7.128,10.02,10.02,0,0,1,5.973-2.24,5.581,5.581,0,0,1,2.369.456l-.412.826-.894-.23c.051-.074,1.052-4.409,4.787-6.173a11.656,11.656,0,0,1,4.5-1.326,2.006,2.006,0,0,1,.4.033l-.19.9-.916-.118c0-.117.984-6.662,8.909-7.419.811-.078,1.551-.113,2.227-.113,5.63-.06,6.944,2.63,7,2.977l-.879.281-.712-.587a11.171,11.171,0,0,1,8.232-3.644,12.834,12.834,0,0,1,4.642.911c7.521,2.872,7.9,8.566,7.853,9.2v.058l-.922-.025-.637-.668a7.694,7.694,0,0,1,4.747-2.048,4.962,4.962,0,0,1,3.354,1.323l3.162,2.811-.613.69.047-.922a10.688,10.688,0,0,1,9.457,8.191,14.443,14.443,0,0,1,.464,3.554,10.2,10.2,0,0,1-7.9,10.285,25.087,25.087,0,0,1-4.728.708,1.88,1.88,0,0,1-.856-.142l.413-.825.864.323c-.052.052-2.416,6.73-8.89,7.215-.556.034-1.071.05-1.549.05-4.58.023-5.8-1.5-5.992-1.872l.808-.446.886.257c-.08.034-2.784,10.281-10.662,11.492a19.6,19.6,0,0,1-2.59.177c-5.671,0-8.547-2.661-8.65-2.764l.635-.669.5.779c-.072.022-4.117,2.679-8.081,2.713a6.533,6.533,0,0,1-2.351-.405c-3.934-1.512-5.358-3.067-5.456-3.18l.693-.61.673.632a9.482,9.482,0,0,1-6.174,2.889q-.275,0-.555-.025c-3.478-.3-4.84-1.592-4.979-1.748a.923.923,0,0,1,1.212-1.382,1.342,1.342,0,0,1,.586,1.088c-.349,1.51-1.381,1.488-3.663,1.694-.477.022-.923.031-1.339.031a14.084,14.084,0,0,1-4.595-.559l.327-.863.881.274a16.68,16.68,0,0,1-8.408,9.468l-.379.082H998.183L985.97,206.194l20.394-15.215a.923.923,0,0,1,1.475.739V234.67l59.528-47.188.573-.2h4.8a.925.925,0,0,1,.923.923V228.32l45.506-33.259-6.912-39.432h-41.171v7.15l39.945-1-4.3-29.337h-11.853l-.193-.02a6.845,6.845,0,0,1-4.91-4.569,11.708,11.708,0,0,1-.569-3.146,2,2,0,0,1,.487-1.545l.617.686-.757.527a8.636,8.636,0,0,1-1.379-4.576,7.162,7.162,0,0,1,.72-3.146c1.632-3.4,3.01-3.9,3.687-3.918l.1,0-.085.919-.917.109a10.292,10.292,0,0,1-.051-1.1c.007-1.938.385-6.173,3.846-8.979a9.224,9.224,0,0,1,5.772-2.3,5.439,5.439,0,0,1,2.447.513l-.437.813-.887.254a3.551,3.551,0,0,1-.109-.939c-.026-1.392.7-4.1,4.436-6.368,4.282-2.623,6.059-2.884,6.724-2.893a1.4,1.4,0,0,1,.229.016l-.144.911-.922-.046a4.508,4.508,0,0,1,3.16-3.938l2.4-.761.279.88-.92-.079c-.016-.119.606-6.111,7.595-7.958a13.117,13.117,0,0,1,3.342-.467c4.468-.008,6.193,2.874,6.251,3.02l-.807.447-.8-.452c.058-.139,1.768-2.976,6.1-2.971a14.563,14.563,0,0,1,5.73,1.346c5.852,2.475,7.067,5.823,7.033,7.717a4.028,4.028,0,0,1-.211,1.366l-.862-.329-.81-.442a6.038,6.038,0,0,1,4.884-3.112,5.567,5.567,0,0,1,2.206.481c2.7,1.155,3.546,2.327,3.573,3.42a1.578,1.578,0,0,1-.248.875l-.762-.52.127-.914c.008.018,9.817,1.257,9.958,9.973q0,.384-.028.786c-.734,9.277-10.392,9.751-10.418,9.759l-.048-.922.879.282c-.037.046-2.077,6.747-8.6,6.908-.34,0-.661,0-.965,0-4.925-.1-5.139-.165-5.874-.784l.739-.554.864.325c-.082.018-3.468,9.8-11.266,9.975-.118,0-.235,0-.354-.007-7.174-.321-8.359-1.534-8.731-1.961l.746-.543.363.849a22.093,22.093,0,0,1-7.312,1.688,7.324,7.324,0,0,1-2.235-.312,11.662,11.662,0,0,1-4.909-2.658l.681-.622.641.664a8.854,8.854,0,0,1-5.511,2.014q-.314.017-.611.017a7.322,7.322,0,0,1-4.867-1.49l.626-.678.743-.547a1.452,1.452,0,0,1,.268.851c-.064,1.155-1.083,1.921-3.37,2.3a17.862,17.862,0,0,1-3.048.308,4.518,4.518,0,0,1-1.839-.266l.394-.835.77.509a17.547,17.547,0,0,1-7.767,6.095l-.323.058h-14.746l-10.873,61.876,5.517-3.381a.923.923,0,0,1,1.4.787v41.655l61.291-44.074.539-.173h4.92a.924.924,0,0,1,.923.923v94.436a.923.923,0,0,1-.923.923h-3.69a.922.922,0,0,1-.923-.923v-17.35h.923l.043.922c-.007,0-14.982.7-25.818.7-3.058,0-5.785-.055-7.781-.2-2.018-.467-3.141.369-4-1.642V243.2a.922.922,0,0,1,.813-.916,140.656,140.656,0,0,1,14.218-.919c4.63.176,8.658.015,9.959,2.6a66.006,66.006,0,0,1,2.663,16.077c-.066,2.66-.232,4.951-2.107,5.965-3.112,1.293-34.179,3.1-52.774,3.136-3.73,0-6.928-.078-9.277-.261-2.418-.343-3.659-.095-4.687-1.372h0c-.722-1.593-.812-5.386-.846-9.919,0-3.505.124-7.29.3-10.214.09-1.463.192-2.708.3-3.611.056-.454.112-.817.18-1.112.259-.247-.336-.59,1.062-1.077.287,0,6.417-.287,12.386-.287,5.627.127,10.588-.045,12.368,1.467,1.249,1.672,1.275,5.942,1.368,10.847,0,2.853-.116,5.757-.317,8-.465,2.362.1,3.516-1.481,4.624-1.312.328-33.051,2.3-50.739,2.314-3.3,0-6.082-.07-8.094-.24-2.029-.417-3.162.148-4.005-1.617-.188-1.53-.356-6.842-.359-11.91,0-2.526.044-4.968.156-6.816.431-1.968-.424-2.782,1.319-3.909a4.191,4.191,0,0,1,.613-.03c3.354,0,21.361,1.072,21.379,1.073a.923.923,0,0,1,.868.913l.175,19.5a.923.923,0,0,1-.923.931H996.141l-.1,0s-1.193-.127-2.476-.126a9.927,9.927,0,0,0-2.073.172,1.494,1.494,0,0,0-.46.166l-.175-.249h.267a.31.31,0,0,1-.091.249l-.175-.249h.081l.178-.068.008.068h-.186l.178-.068h0a2.545,2.545,0,0,0,2.28,1.229,1.7,1.7,0,0,0,1.587-.824c.207-.175.527-3.749.482-7.71,0-3.81-.153-8.291-.391-11.9-.119-1.8-.259-3.386-.41-4.545-.074-.578-.153-1.051-.225-1.374a3.217,3.217,0,0,0-.094-.346l.22-.079-.157.145-.063-.066.22-.079-.157.145.409-.378-.222.521a.537.537,0,0,1-.187-.143l.409-.378-.222.521c-.379-.239-5.324-.487-10.754-.455-4.628,0-9.86.1-13.952.251-2.045.074-3.808.161-5.06.25-.624.045-1.123.091-1.447.134-.161.021-.282.042-.327.053l-.167-.7.584.333c-.375.544-.432.3-.416.369l-.167-.7.584.333h0l-.146-.084.226.015-.08.069-.146-.084.226.015c-.082,1.266-.114,6.549-.114,13.185,0,15.2.156,37.684.156,37.723l-.923.006v-.923h32.635V272.846h-.746v-.923h.923v14.626h148.359a.923.923,0,0,1,.923.923V317.2l14.849.268h.006c2.4.06,4.559.1,6.551.1a61.26,61.26,0,0,0,9.916-.646c5.021-.8,8.5-2.4,10.979-2.444,1.306.183,3.847-2.849,6.681-3.52l.03.163-.173-.13c.046.034,0,0,.142-.033l.031.163-.173-.13c1.69-1.935,2.925-21.484,2.883-24.926.023-1.991.2-4.142.2-6.073a10.3,10.3,0,0,0-.75-4.615h0c-.977-2.009-5.644-3.487-7.656-5.306h0c-1.88-1.89-1.66-2.525-3.086-2.662a1.58,1.58,0,0,0-.18-.01c-1.077-.1-2.751,1.4-5.094,1.483a4.29,4.29,0,0,1-1.031-.124c-3.055-.9-9.313-8.372-10.823-9.62-.6-.6-2.486-.848-3.568-.818-.507,0-.825.03-.826.028l-.079-.92.555-.738c.005,0,4.833,3.636,5.547,4.139h0c.235.267,7.476,2.7,10.324,2.623a4.43,4.43,0,0,0,.477-.023c2.069-.147,3.6-2.137,6.261-2.258a4.206,4.206,0,0,1,1.413.25c2.923,1.072,4.135,2.874,8.188,5.441a25.842,25.842,0,0,0,4.23,2.284,8.2,8.2,0,0,0,.986.313l-.054.921-.9.185a94.434,94.434,0,0,0-3.032-11.2c-1.487-4.084-7.813-10.417-7.809-10.432l.65-.655.917.1c-.023.091-.812,7.846-8.1,11.111l-.372-.844.856.345c-2.421,5.524-11.967,7.2-12.029,7.3l-.188-.9.918.091c-.014.054-.514,5.725-5.968,6.807a10.08,10.08,0,0,1-1.812.171A6.521,6.521,0,0,1,1159,269.73l.792-.475.575.722a5.669,5.669,0,0,1-3.294,1.122,4.88,4.88,0,0,1-2.5-.7,3.585,3.585,0,0,1-1.851-3.191,5.477,5.477,0,0,1,.6-2.4l.812.44.412.826a10.808,10.808,0,0,1-4.364,1.027,5.833,5.833,0,0,1-5.084-2.625,9.785,9.785,0,0,1-1.62-5.327c-.066-3,1.724-6.033,5.273-6.14l.034.922-.914.132a13.068,13.068,0,0,1-.1-1.716c.02-2,.33-5.477,3.214-7.175a10.875,10.875,0,0,1,5.36-1.471,7.224,7.224,0,0,1,1.769.19l-.243.89-.921-.065c.038-.079.307-5.581,4.693-8.13a9.885,9.885,0,0,1,4.853-1.408,6.068,6.068,0,0,1,3.615,1.053l-.57.725-.723-.574c.074-.057,3.589-4.6,9.193-4.65a9.871,9.871,0,0,1,1.116.063c8.175.916,8.646,7.657,8.642,7.772a.923.923,0,0,1-1.361.852,16.059,16.059,0,0,0-6.858-1.708,10.609,10.609,0,0,0-2.13.209c-4.355.9-4.929,4.022-4.99,4.013a.925.925,0,0,1-.924.714s-.076,0-.231,0c-1.046-.053-5.584.25-6.894,1.7a6.347,6.347,0,0,0-1.9,3.786.922.922,0,0,1-1.484.714,7.537,7.537,0,0,0-4.057-1.422c-2.019-.044-4.052,1.826-4.077,1.806a.924.924,0,0,1-1.276-.012c-.045-.078-3.947-3.767-3.992-8.761a8.758,8.758,0,0,1,.1-1.321c.94-6.506,5.177-7.435,5.4-7.406l.132.914-.9.223a17.343,17.343,0,0,1-.414-3.8,10.474,10.474,0,0,1,2.526-7.368c2.45-2.544,4.609-3.2,6.058-3.2a3.78,3.78,0,0,1,1.773.381l-.449.806-.81.442a9.362,9.362,0,0,1-.991-4.137,7.613,7.613,0,0,1,2.37-5.562,8.068,8.068,0,0,1,5.777-2.377,8.9,8.9,0,0,1,3.307.62l-.37.845-.92-.066a5.5,5.5,0,0,1,5.76-4.9,10.36,10.36,0,0,1,1.773.162l-.158.909-.829.405a8.548,8.548,0,0,1-.765-3.446,5.763,5.763,0,0,1,1.852-4.356,11.278,11.278,0,0,1,5.877-3.157l.1.917-.917.1a5.289,5.289,0,0,1-.023-.538c-.1-2.058,1.146-9.832,13.253-11.179a19.9,19.9,0,0,1,2.353-.143,13.594,13.594,0,0,1,13.223,8.825l-.879.28-.794-.472a8.58,8.58,0,0,1,7.239-3.8,12.085,12.085,0,0,1,4.308.858c4.395,1.674,5.556,5.922,5.528,9.593a27.706,27.706,0,0,1-1.443,8.28.923.923,0,0,1-1.552.309c-.01-.019-4.145-4.512-9.923-4.569h-.144c-4.464-.028-7.544,3.283-7.585,3.255a.922.922,0,0,1-1.587-.511c0-.033-1.052-6.845-5.394-8.316a.923.923,0,0,1,.131-1.769,29.028,29.028,0,0,1,5.346-.5c3.092.013,6.92.5,9.547,2.886l-.625.679-.476-.791c.071-.028,7.2-4.359,15-4.378a17.484,17.484,0,0,1,4.878.658c9.587,2.9,10.519,14.719,10.564,14.77l-.919.085-.1-.917a7.678,7.678,0,0,1,.773-.033,11.283,11.283,0,0,1,8.226,3.418,8.207,8.207,0,0,1,2.181,5.7,10.216,10.216,0,0,1-.683,3.683l-.849-.362-.126-.914a11.721,11.721,0,0,1,1.464-.079c2.87-.023,9.665.847,12.431,8.092a12.161,12.161,0,0,1,.847,4.341c-.142,8.808-10.448,12.376-10.475,12.441a.923.923,0,0,1-1.241-.866c0-.018-.054-6.549-5.444-9.078a8.2,8.2,0,0,0-3.6-.841,8.712,8.712,0,0,0-4.3,1.194.923.923,0,0,1-1.438-.654c-.033,0-.459-4.974-7.562-7.046a13.875,13.875,0,0,0-3.864-.533c-6.414-.1-12.641,4.36-13.271,6.482a.923.923,0,0,1-1.258.524,16.772,16.772,0,0,0-6.159-1.425,7.674,7.674,0,0,0-2.063.26c-4.546,1.281-5.042,4.358-5.116,4.347a.923.923,0,0,1-.991.722s-.136-.014-.413-.014c-1.453.084-4.877.268-4.882,4.348,0,.2.009.416.026.642.414,5.471,5.293,5.5,5.948,5.562H1201a.921.921,0,0,1,.891.586s.943,2.412,2.062,4.84c.558,1.213,1.162,2.43,1.695,3.323a8.123,8.123,0,0,0,.7,1.032,1.532,1.532,0,0,0,.206.209l-.164.212.037-.245c.137.02.124.036.127.034l-.164.212.037-.245h0l-.09.586v-.594l.09.007-.09.586v-.3l-.164-.27c.009.014.01-.023.164-.027v.3l-.164-.27c1.126-.494,5.2-9.02,5.221-9.02a.924.924,0,0,1,1.516-.242c0,.022,3.384,3.581,7.3,4.182a13.957,13.957,0,0,0,2.237.194,6.471,6.471,0,0,0,2.76-.485.923.923,0,0,1,1.275.3c0,.021,2.842,4.511,7.044,6.125a4.99,4.99,0,0,0,1.842.352c3.005.055,5.578-2.9,5.608-2.877a.924.924,0,0,1,1.186-.186,10.068,10.068,0,0,0,4.879,1.28c2.3-.017,5.009-.823,7.587-4.151l.527-.337c3.97-.973,5.168-2.93,5.224-5.421a8.78,8.78,0,0,0-.621-3.077l.041-.748a7.63,7.63,0,0,0,.968-3.445,4.147,4.147,0,0,0-1.48-3.229,5.173,5.173,0,0,0-1.118-.748,3.357,3.357,0,0,0-.386-.163l.006-.019v-.906h.882a1.008,1.008,0,0,1-.882.906v-.906h.882c-.417,1.658-4.668,6.332-10.639,8.783-5.636,2.057-7.806,2.126-7.948,2.13l-.018-.923.753.532c-.11.064-10.106,14.518-15.008,16.843-1.892.812-4.288.843-5.666,1.574a15.69,15.69,0,0,0-4.348,3.348.923.923,0,0,1-1.63-.544c0-.01-.044-.838-.044-1.962a17.247,17.247,0,0,1,.641-5.464h0c.809-1.976,5.752-13.319,5.755-13.325a.923.923,0,0,1,1.455-.325,11.179,11.179,0,0,0,5.621,2.167,14.587,14.587,0,0,0,2.036.156,4.829,4.829,0,0,0,2.468-.45.923.923,0,0,1,1.539.535c-.011.071,1.505,6.937,3.086,6.884a.923.923,0,0,1,.487,1.509c-.034.027-5.438,6.218-8.282,8.272-1.472,1.007-4.211,1.644-6.438,3.124-.626.365-1.532,1.861-2.562,2.753-1.962,1.6-3.4,3.409-3.594,5.143h0c-.18,1.441-.282,4.491-.281,8.083-.1,8.786.825,21.807,1.661,22.412h0c1.241,1.725,4.642,1.453,6.848,4.892h0c1.415,2.839,14.962,6.287,28.194,6.155a68.027,68.027,0,0,0,14.391-1.4c12.532-2.85,15.065-8.069,15.116-12.486.021-4.291-2.689-8.031-2.665-8.058l.749-.54-.06.921-3.593-.234a.923.923,0,0,1-.41-1.715c.046,0,8.056-4.918,9.22-10.162h0a8.448,8.448,0,0,0,.239-1.974,8.964,8.964,0,0,0-3.138-6.482l.56-.733-.34.858a3.1,3.1,0,0,0-1.109-.169c-1.792-.035-4.5,1.051-5.363,2.465h0a2.257,2.257,0,0,0-.462,1.173c-.071.463.6,1.079,2.163,1.581h0a1.975,1.975,0,0,0,.613.094c1.4.073,3.416-1.628,4.043-2.725h0l.255.156h-.29a.33.33,0,0,1,.035-.156l.255.156h-.025l-.161.277c.012-.021-.106-.071-.1-.277h.265l-.161.277a1.044,1.044,0,0,0-.476-.086,3.834,3.834,0,0,0-2.445,1.125h0c-1.476,1.333-1.757,2.086-1.745,2.513a4.982,4.982,0,0,0,.93,2.072h0a1.369,1.369,0,0,0,1.286.671,3.479,3.479,0,0,0,2.758-1.688h0c.226-.352.386-.628.478-.811a1.707,1.707,0,0,0,.081-.186l.268.091h-.274l.006-.091.268.091h.5v.773a1.313,1.313,0,0,1-.774-.773h.774v.773c-.022-.036-.119.039-.535.318-.453.268-1.079.68-1.843,1.194-1.586,1.083-1.864,1.946-1.87,2.5a1.487,1.487,0,0,0,.305.9h0l.034-.044a1.85,1.85,0,0,0,.7-.186,1.274,1.274,0,0,0,.217-.124l.418.538h-.622c.1-.636.236-.5.2-.538l.418.538h.174l-.077.845a.9.9,0,0,1-.719-.845h.8l-.077.845h.007l.055-.654v.656l-.056,0,.055-.654v.242l.226.369a.5.5,0,0,1-.226.046v-.415l.226.369a5.448,5.448,0,0,0-1.282,2.072h-.5l.381-.3a.509.509,0,0,1,.124.3h-.5l.381-.3,0,.006-.531.413v-.7a.7.7,0,0,1,.53.285l-.531.413v-.7c.207.083,4.529-2.6,5.3-4.812a9,9,0,0,0,.637-3.546,13.594,13.594,0,0,0-.856-4.788,4.1,4.1,0,0,0-3.6-2.458,3.421,3.421,0,0,0-1.232.231,11.508,11.508,0,0,1-3.788.97,2.629,2.629,0,0,1-2.371-1.246l0,0a1.687,1.687,0,0,1-.236-.888c.268-2.489,3.477-5.775,6.353-6.419a3.386,3.386,0,0,1,.476-.035c3.184.2,3.656,3.927,4.216,4.589h0l-.324.194.1-.423c-.01.047.046-.028.227.229l-.324.194.1-.423a2.549,2.549,0,0,0,.5.037c2.437.015,9.007-1.582,11.012-1.607a1.351,1.351,0,0,1,1.075.373l0,.005a.991.991,0,0,1,.261.666c-.857,1.809-1.274.885-2.326,1.423-2.786.5-8.94,1.461-8.92,1.6h0l-.471-.6h.751a.78.78,0,0,1-.281.6l-.471-.6h.312l.3-.456c-.04.062.057,0,.141.456h-.439l.3-.456c.81.612,6.142,1.946,7.233,1.889a11.994,11.994,0,0,0,3.884-2.508c1.676-1.344,3.056-3.3,2.912-3.474h.208l-.189.076-.019-.076h.208l-.189.076v0l.34-.138-.215.308a.389.389,0,0,1-.125-.169l.34-.138-.215.308a2.238,2.238,0,0,0-.968-.115c-2.935-.012-9.522,1.737-11.523,2.045a6.763,6.763,0,0,1-.986.077,3.3,3.3,0,0,1-3.46-3.328l0-.134v0c.793-2.991,14.107-15.549,17.367-16.232l.094,0c.442.109,1.324-.137,1.632,1.208-.447,1.691-1.736,1.88-3.969,4.569-1.627,1.808-4.9,4.59-7.8,7.126-1.445,1.263-2.789,2.458-3.754,3.4a15.163,15.163,0,0,0-1.109,1.173,2.8,2.8,0,0,0-.239.33l-.246-.142h.255l-.009.142-.246-.142h-.488l.649-.356a.74.74,0,0,1,.093.356h-.742l.649-.356,0,.005-.567.307.176-.645a.66.66,0,0,1,.391.338l-.567.307.176-.645.11,0c2.074.055,12.894-3.519,15.749-4.809,2.854-1.164,7.928-8.2,9.759-16.683a13.413,13.413,0,0,0,.374-2.816c-.141-1.841-.367-1.833-1.221-1.941-1.462-.055-4.645,1.633-8.059,4.045-6.744,4.667-11.226,12.123-13.4,13.331h0a1.343,1.343,0,0,1-.564.129c-2.285-.8-1.555-2.828-2.209-4.971-.256-2.137-1.035-4.311-1.32-4.269h0l.189-.389v.43a.442.442,0,0,1-.189-.041l.189-.389v.254l.193.155c-.053-.042,0,.012-.193.021v-.176l.193.155c-.838.851-1.836,7.123-1.771,10.636a13.333,13.333,0,0,0,.1,1.83,2.5,2.5,0,0,0,.1.445l-.341.124.17-.271c.213.132.16.151.17.148l-.341.124.17-.271h0l-.092.146v-.175l.092.029-.092.146v-.175c.271.113,2.812-2.526,4.444-6.518,1.168-2.582,1.749-3.831,1.739-5.188a13.282,13.282,0,0,0-1.215-4.611c-1.158-3.067-2.746-4.624-3.65-4.515-.59-.02-1.53.494-2.593,2.3-1.042,1.739-1.411,4.672-1.4,7.615,0,3.787.54,7.5.547,9.222,0,.145,0,.279-.014.412h0c-.442,2.708-4.121,5.583-7.582,5.754a4.1,4.1,0,0,1-1.939-.457,2.29,2.29,0,0,1-1.307-2.043c.234-2.6,3.254-4.823,5.947-4.991a3.063,3.063,0,0,1,1.337.288,4.448,4.448,0,0,1,2.188,4.261,10.1,10.1,0,0,1-1.846,5.692,5.513,5.513,0,0,1-4.465,2,5.166,5.166,0,0,1-5.432-4.2v0a8.423,8.423,0,0,1-.084-1.249c.007-1.967.469-4.163.463-5.962-.125-2.254-.361-3.371-2.958-3.774a.923.923,0,0,1,.216-1.833Z" transform="translate(-0.192 -0.192)" fill="url(#linear-gradient)"/>
        </g>
      </g>
      <rect id="Rectangle_1018" data-name="Rectangle 1018" width="267" height="251" transform="translate(826 1361)" opacity="0.83" fill="url(#linear-gradient-2)"/>
      <rect id="Rectangle_1019" data-name="Rectangle 1019" width="637" height="128" transform="translate(142 1405)" opacity="0.39" fill="url(#linear-gradient-3)"/>
      <rect id="Rectangle_1228" data-name="Rectangle 1228" width="1335" height="165" transform="translate(124 1361)" opacity="0.67" fill="url(#linear-gradient-3)"/>
    </g>
  </g>
</svg>
