<svg id="Groupe_428" data-name="Groupe 428" xmlns="http://www.w3.org/2000/svg" width="43.302" height="43.302" viewBox="0 0 43.302 43.302">
  <path id="Tracé_1871" data-name="Tracé 1871" d="M21.651,0A21.651,21.651,0,1,1,0,21.651,21.651,21.651,0,0,1,21.651,0Z" fill="#fff" opacity="0.14"/>
  <path id="Forma_1" data-name="Forma 1" d="M137.354,27.318a8.589,8.589,0,0,1-2.729,1.056A4.253,4.253,0,0,0,131.492,27,4.324,4.324,0,0,0,127.2,31.35a4.435,4.435,0,0,0,.111.991,12.138,12.138,0,0,1-8.851-4.547,4.4,4.4,0,0,0,1.329,5.81,4.244,4.244,0,0,1-1.945-.546v.054a4.344,4.344,0,0,0,3.444,4.269,4.3,4.3,0,0,1-1.131.153,4.225,4.225,0,0,1-.809-.08,4.309,4.309,0,0,0,4.01,3.024,8.544,8.544,0,0,1-5.332,1.862A8.962,8.962,0,0,1,117,42.281a12.044,12.044,0,0,0,6.583,1.955c7.9,0,12.217-6.633,12.217-12.384l-.014-.564a8.7,8.7,0,0,0,2.146-2.25,8.477,8.477,0,0,1-2.465.686A4.367,4.367,0,0,0,137.354,27.318Z" transform="translate(-105.722 -13.982)" fill="#fff"/>
</svg>
